<svg xmlns="http://www.w3.org/2000/svg" viewBox="0 0 3000 3000" width="3000" height="3000"><g transform="translate(2838.0 1874.3999999999999) rotate(1.283601216073047 -417.6 370.19999999999993) scale(-1.2489905787348587 1.250253292806484)"><svg width="668.7" height="592.2" viewBox="0 0 668.7 592.2"><linearGradient id="a" gradientTransform="matrix(1 0 0 -1 0 -392.3863)" gradientUnits="userSpaceOnUse" x1="192.066" x2="635.503" y1="-926.581" y2="-877.405"><stop offset="0" stop-color="#3658c1"/><stop offset=".111" stop-color="#3454b8"/><stop offset=".291" stop-color="#2f4ba0"/><stop offset=".517" stop-color="#273b7a"/><stop offset=".778" stop-color="#1c2644"/><stop offset="1" stop-color="#111"/></linearGradient><path d="M314.6 3.2c51.9-6.3 106 1.3 156.1 21.2l-90 247.3L228.7 28c27.2-13.1 56.2-21.2 85.9-24.8z" fill="#3658c1"/><g fill="#111"><path d="M380.7 272.6c-.3 0-.7-.2-.8-.5l-152-243.7c-.1-.2-.2-.5-.1-.8s.3-.5.5-.6C255 14.2 284 5.8 314.5 2.2l.1 1-.1-1C366.2-4 420.3 3.3 471.1 23.5c.5.2.8.8.6 1.3l-90 247.3c-.1.4-.5.6-.8.7l-.2-.2zM230.1 28.3l150.3 241 89-244.4C419.2 5.2 365.8-2 314.7 4.1c-29.9 3.7-58.3 11.8-84.6 24.2z"/><path d="m380.7 271.6-17.5 32.7-152-243.7 17.5-32.7z"/><path d="M363.1 305.3c-.3 0-.7-.2-.8-.5l-152-243.7c-.2-.3-.2-.7 0-1l17.5-32.7c.2-.3.5-.5.8-.5.4 0 .7.2.9.5l152 243.7c.2.3.2.7 0 1L364 304.8c-.2.3-.5.5-.9.5zM212.3 60.5 363 302.3l16.4-30.6L228.8 29.9z"/></g><path d="M470.7 24.3c52.7 21 100.9 55.5 137.3 101.8 74.7 95.1 80.2 215.2 24 302.6l-251.3-157z" fill="#b0c3ff"/><path d="M632 429.7c-.2 0-.4 0-.5-.2l-251.3-157c-.4-.2-.6-.7-.4-1.2l90-247.3c.1-.3.3-.5.5-.6s.5-.1.8 0c54.7 21.7 102.3 57 137.7 102.1 36.2 46.2 57.4 99.7 61.3 154.7 3.8 53.8-9.1 105.3-37.2 149-.3.3-.6.5-.9.5zM381.9 271.2l249.8 156.1c27.5-43.1 40.1-93.9 36.4-146.9-3.8-54.7-24.9-107.8-60.9-153.7-35-44.5-81.9-79.4-135.9-101.1z" fill="#111"/><path d="m641.3 412.8-17.5 32.7c-2.9 5.4-6 10.7-9.3 15.8l17.5-32.7c3.3-5.1 6.4-10.4 9.3-15.8" fill="#fff"/><path d="M614.5 462.3c-.2 0-.3 0-.5-.1-.5-.3-.6-.9-.4-1.3l17.5-32.7c3.3-5.2 6.4-10.5 9.3-15.8.3-.5.9-.7 1.4-.4s.7.9.4 1.4L624.7 446c-2.9 5.4-6.1 10.8-9.4 15.9-.2.3-.5.4-.8.4z" fill="#111"/><path d="m380.7 271.6 251.3 157c-17.9 27.7-41.9 52.2-71.9 71.5-34.2 21.9-73.1 35.1-113.7 40-32.3 3.9-65.7 2.5-98.6-4.1z" fill="#3658c1"/><path d="M410 543.3c-20.7 0-41.6-2.1-62.5-6.3-.5-.1-.9-.6-.8-1.1l32.9-264.5c0-.3.3-.6.6-.8s.7-.1 1 .1l251.3 157c.2.1.4.4.4.6.1.3 0 .5-.1.8-18.5 28.9-42.8 53-72.2 71.9-33.8 21.6-72.2 35.1-114.1 40.2-12.1 1.4-24.2 2.1-36.5 2.1zm-61.2-8c32.7 6.4 65.4 7.7 97.4 3.9 41.7-5 79.8-18.5 113.3-39.9 28.9-18.5 52.8-42.2 71.1-70.3L381.5 273.3z" fill="#111"/><path d="m380.7 271.6-32.9 264.5C296.4 525.9 246.3 503 203.4 468z" fill="#b0c3ff"/><path d="M347.7 537.1h-.2c-52.9-10.5-102.9-34.1-144.8-68.3-.2-.2-.3-.4-.4-.7 0-.3.1-.5.3-.7L379.9 271c.3-.3.8-.4 1.2-.2s.6.6.6 1l-32.9 264.5c0 .3-.2.5-.4.7-.3 0-.5.1-.7.1zm-142.9-69.2c41.2 33.3 90.3 56.5 142.1 67l32.4-260.2z" fill="#111"/><path d="M560.1 500.1c-34.2 21.9-73.1 35.1-113.7 40-32.3 3.9-65.7 2.5-98.6-4.1-51.4-10.1-101.5-33-144.4-68l-17.5 32.7c42.9 35 93 57.8 144.4 68.1 32.9 6.6 66.3 8 98.6 4.1 40.6-4.9 79.5-18.2 113.7-40 30-19.3 54.1-43.7 71.9-71.5l17.5-32.7c-17.9 27.7-41.9 52.2-71.9 71.4z" fill="url(#a)"/><path d="M392.5 576c-20.7 0-41.6-2.1-62.5-6.3-52.9-10.5-102.9-34.1-144.8-68.3-.4-.3-.5-.8-.2-1.2l17.5-32.7c.1-.3.4-.4.7-.5s.6 0 .8.2c41.6 33.9 91.4 57.4 143.9 67.8 33 6.6 66 7.9 98.3 4 41.7-5 79.8-18.5 113.3-39.9 29.1-18.7 53.2-42.6 71.6-71.2.3-.5.9-.6 1.3-.3.5.3.6.9.4 1.3l-17.5 32.7c-18.6 28.8-42.9 53-72.3 71.8-33.8 21.6-72.2 35.1-114.1 40.2-12 1.7-24.2 2.4-36.4 2.4zm-205.4-75.5c41.5 33.6 91 56.9 143.3 67.3 33 6.6 66 7.9 98.3 4 41.7-5 79.8-18.5 113.3-39.9 29.1-18.7 53.2-42.6 71.6-71.2l9.4-17.5c-17 22.6-37.9 42-62.4 57.6-33.8 21.6-72.2 35.1-114.1 40.2-32.5 3.9-65.8 2.6-98.9-4.1-52.5-10.5-102.2-33.8-143.9-67.5z" fill="#111"/><path d="M135.7 48.9 307 279.5 146.2 489.6c-19.8-13.6-38-29.3-54-46.6C-16.1 326.1-8.2 156 109.6 66.3c8.3-6.3 17-12.1 26.1-17.4z" fill="#fff"/><path d="M146.2 490.6c-.2 0-.4-.1-.6-.2-19.8-13.6-38-29.3-54.2-46.7-27.8-30.1-48.5-64-61.5-100.8-12.5-35.6-17.3-72.1-14.2-108.4 5.9-67.6 39-127.6 93.2-168.9 8.1-6.2 16.9-12.1 26.2-17.5.4-.3 1-.1 1.3.3L307.7 279c.3.4.3.8 0 1.2L147 490.2c-.2.3-.5.4-.8.4zM135.4 50.2c-8.9 5.3-17.4 11-25.2 16.9-53.8 41-86.6 100.5-92.4 167.5-3.1 36 1.6 72.2 14.1 107.5 12.9 36.6 33.5 70.3 61.1 100.1 15.8 17.1 33.7 32.5 53.1 45.9l159.7-208.8z" fill="#111"/><path d="m306.9 279.4-14.8 34-160.7 210.2 14.8-34z" fill="#111"/><path d="M131.4 524.6c-.2 0-.3 0-.5-.1-.4-.3-.6-.8-.4-1.3l14.8-34c0-.1.1-.1.1-.2l160.8-210.2c.3-.4.9-.5 1.3-.3.4.3.6.8.4 1.3l-14.8 34c0 .1-.1.1-.1.2L132.2 524.2c-.2.2-.5.4-.8.4zm15.7-34.5-11.5 26.3 155.7-203.5 11.5-26.3z" fill="#111"/><path d="m146.2 489.6-14.8 34c-19.8-13.6-38-29.3-54-46.6C.1 393.5-18 283 20.8 193.9l14.8-34C-3.2 249 14.9 359.5 92.2 443c16 17.3 34.2 33 54 46.6" fill="#3658c1"/><path d="M131.4 524.6c-.2 0-.4-.1-.6-.2-19.8-13.6-38-29.3-54.2-46.7-37.5-40.5-62.4-88.8-72.1-139.9-9.4-49.7-4.1-99.6 15.3-144.2l14.8-34c.2-.5.8-.7 1.3-.5s.7.8.5 1.3c-19.3 44.3-24.5 93.7-15.2 143 9.6 50.7 34.4 98.8 71.6 138.9 16 17.3 34.1 32.9 53.8 46.4.4.3.5.8.4 1.2l-14.8 34c-.1.3-.4.5-.6.6 0 .1-.1.1-.2.1zM24.3 188.5l-2.6 5.9C2.4 238.6-2.8 288 6.5 337.4c9.6 50.7 34.4 98.8 71.6 138.9 15.8 17 33.5 32.4 52.8 45.8l14-32.1c-19.6-13.5-37.6-29.1-53.5-46.3-37.4-40.5-62.3-88.9-72-139.9-7.5-39.3-5.8-78.6 4.9-115.3z" fill="#111"/></svg></g><g transform="translate(498.0 736.8) rotate(0.0 1029.0 777.6) scale(1.200006297409141 1.2000611142234097)"><svg width="1714.991" height="1295.934" viewBox="0 0 1714.991 1295.934"><linearGradient id="b" gradientUnits="userSpaceOnUse" x1="730.151" x2="1037.889" y1="1178.13" y2="80.929"><stop offset="0" stop-color="#111"/><stop offset=".46" stop-color="#3658c1"/><stop offset=".716" stop-color="#3658c1"/><stop offset="1" stop-color="#b0c3ff"/></linearGradient><path d="m1690.226 229.26-23.1-20.381c20.647 18.214 29.355 48.673 20.044 80.717l-264.815 911.394c-13.616 46.862-60.627 79.421-105.066 72.68L60.461 1083.03a69.012 69.012 0 0 1-35.677-16.353l23.1 20.38a69 69 0 0 0 35.677 16.353l1256.829 190.64c44.439 6.741 91.45-25.818 105.067-72.68l264.813-911.393c9.311-32.044.603-62.504-20.044-80.717z" fill="url(#b)"/><path d="M1352.119 1295.928a79.1 79.1 0 0 1-11.878-.889L83.413 1104.4a70.408 70.408 0 0 1-36.189-16.592l-23.1-20.381a1 1 0 0 1 1.323-1.5 68.406 68.406 0 0 0 35.166 16.114l1256.828 190.641c43.856 6.65 90.494-25.633 103.957-71.971l264.812-911.394c8.884-30.572 1.317-61.107-19.745-79.688a1 1 0 1 1 1.322-1.5l23.1 20.38c21.65 19.1 29.445 50.421 20.343 81.746l-264.811 911.393c-12.519 43.103-53.241 74.278-94.3 74.28zM37.646 1076.69l10.9 9.617a68.419 68.419 0 0 0 35.166 16.115l1256.829 190.64c43.849 6.651 90.492-25.633 103.957-71.971L1709.31 309.7c8.883-30.573 1.317-61.108-19.746-79.688l-10.807-9.534c13.059 18.852 16.715 44.125 9.37 69.4l-264.812 911.394c-12.523 43.1-53.241 74.277-94.3 74.279a79.081 79.081 0 0 1-11.876-.889L60.311 1084.019a72.579 72.579 0 0 1-22.665-7.329z" fill="#111"/><path d="M1631.424 192.522c44.439 6.741 69.359 50.212 55.743 97.074l-264.811 911.394c-13.617 46.862-60.628 79.421-105.067 72.68L60.46 1083.03c-44.392-6.73-69.36-50.211-55.743-97.073L269.528 74.564C283.144 27.7 330.2-4.852 374.6 1.882z" fill="#b0c3ff"/><path d="M1329.015 1275.548a79.213 79.213 0 0 1-11.876-.889L60.31 1084.019c-20.506-3.111-37.768-14.159-48.6-31.111-12.01-18.787-14.91-43.291-7.953-67.23L268.568 74.285C282.3 27.019 329.937-5.9 374.745.893l1256.828 190.64c20.52 3.113 37.784 14.158 48.614 31.1 12.005 18.781 14.9 43.29 7.94 67.24l-264.812 911.393c-12.523 43.105-53.241 74.282-94.3 74.282zM362.842 2c-40.2 0-80.072 30.573-92.353 72.841L5.677 986.236c-6.795 23.385-3.983 47.294 7.715 65.595 10.52 16.459 27.29 27.187 47.218 30.21l1256.829 190.641c43.852 6.65 90.492-25.634 103.956-71.972l264.812-911.392c6.8-23.4 3.99-47.31-7.7-65.606-10.516-16.451-27.289-27.177-47.23-30.2L374.446 2.871A77.3 77.3 0 0 0 362.842 2z" fill="#111"/><path d="M1592 234.11 387.523 51.41c-33-5.006-67.94 19.167-78.061 54L58.454 969.3c-10.122 34.837 8.4 67.169 41.4 72.175l1204.479 182.7c33 5.006 67.955-19.215 78.077-54.051l251.008-863.885C1643.54 271.4 1625 239.115 1592 234.11z" fill="#fff"/><g fill="#111"><path d="M1313.036 1225.82a59.024 59.024 0 0 1-8.853-.662l-1204.478-182.7a51.46 51.46 0 0 1-36.273-23.22c-8.97-14.033-11.135-32.338-5.938-50.222L308.5 105.131c10.238-35.236 45.754-59.778 79.171-54.71l1204.48 182.7a51.491 51.491 0 0 1 36.3 23.226c8.958 14.015 11.119 32.3 5.928 50.165L1383.371 1170.4c-9.345 32.158-39.714 55.42-70.335 55.42zM378.786 51.756c-29.753 0-59.271 22.638-68.363 53.933L59.414 969.574c-5.035 17.33-2.957 35.039 5.7 48.587a49.49 49.49 0 0 0 34.888 22.32l1204.479 182.7c32.449 4.923 66.99-19 76.967-53.341l251.008-863.885c5.029-17.312 2.955-35-5.694-48.53a49.514 49.514 0 0 0-34.913-22.326L387.373 52.4a57.185 57.185 0 0 0-8.587-.644zM163.607 523.319c-5.509-.836-11.339 3.158-13.028 8.971s1.411 11.214 6.92 12.05c5.461.828 11.3-3.214 12.994-9.03s-1.425-11.163-6.886-11.991"/><path d="M158.929 545.447a10.616 10.616 0 0 1-1.58-.118 9.423 9.423 0 0 1-6.639-4.257 11.07 11.07 0 0 1-1.091-9.061c1.815-6.245 8.158-10.588 14.138-9.681a9.385 9.385 0 0 1 6.612 4.241 11.016 11.016 0 0 1 1.084 9.018c-1.662 5.721-7.069 9.858-12.524 9.858zm3.2-21.239c-4.607 0-9.18 3.51-10.589 8.361a9.076 9.076 0 0 0 .86 7.431 7.447 7.447 0 0 0 5.254 3.356c5 .758 10.331-2.974 11.884-8.32a9.021 9.021 0 0 0-.849-7.383 7.412 7.412 0 0 0-5.227-3.341 8.973 8.973 0 0 0-1.333-.104z"/></g></svg></g><g transform="translate(850.8 925.1999999999999) rotate(0.0 716.9999999999999 577.8) scale(1.1999819249584522 1.1989890144551012)"><svg width="1195.018" height="963.812" viewBox="0 0 1195.018 963.812"><path d="M763.15 315.238a1 1 0 0 1-.96-1.279l14.738-50.725a1 1 0 0 1 1.11-.71l121.15 18.376a1 1 0 0 1-.301 1.978l-120.284-18.245-14.494 49.884a1 1 0 0 1-.96.722zM429.164 275.14a1 1 0 0 1-.96-1.279l30.627-105.41-108.135-16.402a1 1 0 0 1-.838-1.139.994.994 0 0 1 1.139-.839l109.264 16.573a1.002 1.002 0 0 1 .809 1.267l-30.946 106.506a1.001 1.001 0 0 1-.96.722zm-34.626 437.042a.96.96 0 0 1-.151-.012l-134.712-20.434a.999.999 0 0 1-.838-1.139.99.99 0 0 1 1.139-.838l133.84 20.301 16.89-59.55a.995.995 0 0 1 1.234-.689c.531.15.84.703.689 1.234l-17.13 60.398a1 1 0 0 1-.961.728zm508.889 42.561a1 1 0 0 1-.96-1.279l43.619-150.125-125.214-18.993a.999.999 0 0 1-.838-1.139.994.994 0 0 1 1.139-.838l126.343 19.164a1 1 0 0 1 .809 1.267l-43.938 151.222a1 1 0 0 1-.96.721z" fill="#111"/><path d="M516.801 671.465a3199.452 3199.452 0 0 1-21.943-3.327c6.832 27.357 20.6 82.647 25.839 97.032 2.963 8.142 7.684 12.501 12.541 13.238 7.33 1.112 14.971-6.029 17.343-20.866 1.137-7.148 2.215-18.296 3.19-30.929-30.771-12.114-42.773-30.866-36.97-55.148" fill="#b0c3ff"/><path d="M534.72 779.52c-.55 0-1.095-.041-1.633-.123-5.568-.845-10.427-5.905-13.331-13.885-5.139-14.109-18.316-66.883-25.396-95.234l-.474-1.897a1 1 0 0 1 1.127-1.23c3.541.563 18.093 2.769 21.93 3.325a.998.998 0 0 1 .83 1.222c-5.75 24.06 6.484 42.223 36.363 53.984a1 1 0 0 1 .631 1.008c-1.083 14.038-2.159 24.472-3.199 31.01-2.446 15.304-9.956 21.82-16.848 21.82zm-38.527-110.16.108.434c7.07 28.316 20.231 81.023 25.334 95.035 2.646 7.27 6.93 11.859 11.752 12.592 6.099.91 13.793-4.948 16.206-20.036 1.013-6.37 2.063-16.499 3.123-30.114-30.016-12.02-42.504-30.509-37.133-54.973-4.38-.646-14.776-2.222-19.391-2.938z" fill="#111"/><path d="M702.559 682.83c-24.47 6.121-106.366.116-185.759-11.365-5.803 24.282 6.199 43.034 36.97 55.148 11.782 4.638 26.307 8.302 43.643 10.931 1.093.166 2.209.33 3.325.486 61.615 8.706 94.981-25.614 101.821-55.2" fill="#b0c3ff"/><path d="M619.541 740.393c-6.13 0-12.453-.455-18.942-1.372a313.408 313.408 0 0 1-3.336-.488c-17.214-2.611-31.97-6.309-43.858-10.989-30.951-12.185-43.594-31.13-37.576-56.311a.991.991 0 0 1 1.116-.757c84.773 12.26 162.735 17.048 185.373 11.385a.997.997 0 0 1 1.216 1.195c-3.849 16.642-15.071 32.157-30.793 42.567-14.754 9.771-32.896 14.77-53.2 14.77zm-101.973-67.807c-5.24 23.619 7.059 41.479 36.568 53.096 11.75 4.626 26.36 8.284 43.427 10.874 1.089.165 2.201.328 3.314.484 27.495 3.885 51.965-.639 70.76-13.084 14.804-9.804 25.504-24.233 29.563-39.789-24.897 5.216-99.528.537-183.633-11.581z" fill="#111"/><path d="M635.783 260.121a479.914 479.914 0 0 0-24.393-4.353c-193.544-29.354-313.168 76.864-341.089 132.348-33.774 67.108-10.435 137.753 51.105 147.088 3.527.535 7.187.869 10.962.988-21.299 20.586-20.786 72.747 21.124 96.555 22.222 12.643 79.269 25.542 141.365 35.392 3.545.563 18.182 2.782 21.943 3.327 79.392 11.481 161.288 17.487 185.759 11.365 50.282-12.586 97.421-30.499 128.753-128.665 32.512-101.794 9.887-251.939-195.529-294.045z" fill="#b0c3ff"/><path d="M670.534 686.278c-35.834 0-92.361-4.927-153.877-13.823a3202.805 3202.805 0 0 1-21.957-3.329c-69.869-11.083-121.519-24.026-141.702-35.51-19.46-11.055-32.193-29.821-34.935-51.487-2.213-17.485 2.379-34.488 12.032-45.033a93.148 93.148 0 0 1-8.84-.903c-25.209-3.823-45.459-18.249-57.02-40.617-15.588-30.162-13.654-70.502 5.171-107.909 13.202-26.235 49.637-67.754 108.87-98.426 47.59-24.642 126.688-50.624 233.264-34.46a482.546 482.546 0 0 1 24.443 4.362c45.236 9.272 83.977 24.337 115.145 44.777 28.066 18.405 50.237 41.297 65.896 68.04 30.238 51.639 35.792 118.162 15.239 182.513-31.091 97.414-77.025 116.205-129.462 129.33-6.685 1.673-17.789 2.478-32.269 2.478zM546.351 251.757c-154.26 0-250.479 87.768-275.157 136.809-18.539 36.836-20.476 76.497-5.181 106.091 11.258 21.784 30.983 35.833 55.543 39.559 3.508.532 7.156.86 10.843.977a1 1 0 0 1 .664 1.719c-10.281 9.937-15.269 27.167-13.016 44.967 2.661 21.035 15.031 39.259 33.938 50 19.983 11.369 71.386 24.226 141.027 35.273a3195.27 3195.27 0 0 0 21.931 3.325c84.773 12.26 162.737 17.048 185.372 11.385 51.846-12.978 97.266-31.566 128.044-127.999 20.38-63.811 14.891-129.744-15.061-180.894-33.129-56.577-93.595-94.215-179.718-111.868a479.267 479.267 0 0 0-24.342-4.343c-22.634-3.433-44.291-5-64.889-5z" fill="#111"/><path d="M398.393 373.318c-5.255-.797-10.794 2.594-13.154 7.774a13.063 13.063 0 0 0-.664 1.785 12.3 12.3 0 0 0-.38 1.796c-.728 5.415 2.457 10.142 7.72 10.94 5.807.881 11.998-3.402 13.78-9.532 1.79-6.162-1.494-11.882-7.302-12.763" fill="#3658c1"/><path d="M393.441 396.727c-.56 0-1.119-.041-1.677-.125-5.688-.863-9.369-6.048-8.562-12.062.086-.645.225-1.298.41-1.94.189-.649.43-1.295.715-1.922 2.595-5.692 8.565-9.2 14.216-8.348 2.931.445 5.402 2.032 6.961 4.47 1.717 2.685 2.136 6.17 1.15 9.561-1.748 6.018-7.453 10.368-13.214 10.368zm3.436-22.522c-4.306 0-8.744 2.947-10.729 7.301-.246.54-.452 1.095-.614 1.65a11.51 11.51 0 0 0-.349 1.649c-.67 4.983 2.224 9.112 6.88 9.818 5.33.807 11.021-3.148 12.67-8.822.824-2.837.49-5.726-.915-7.926-1.244-1.945-3.225-3.212-5.577-3.569a9.034 9.034 0 0 0-1.366-.102z" fill="#111"/><path d="M474.389 299.142a10.232 10.232 0 0 0-1.755-.111c-5.271.103-10.423 4.129-12.034 9.675-1.791 6.164 1.474 11.846 7.311 12.731 5.839.886 11.989-3.369 13.78-9.532 1.615-5.558-.874-10.75-5.661-12.366a9.629 9.629 0 0 0-1.64-.397" fill="#3658c1"/><path d="M469.437 322.551c-.56 0-1.119-.041-1.677-.125-2.948-.448-5.429-2.034-6.984-4.468-1.706-2.669-2.12-6.144-1.136-9.531 1.717-5.91 7.174-10.282 12.975-10.396.652-.011 1.303.028 1.924.122.618.094 1.228.242 1.811.438 5.322 1.797 8.031 7.64 6.301 13.593-1.748 6.017-7.453 10.367-13.214 10.367zm3.416-22.523c-.066 0-.132 0-.198.002-4.87.095-9.639 3.945-11.095 8.954-.823 2.834-.495 5.712.9 7.896 1.241 1.941 3.229 3.208 5.601 3.568 5.328.811 11.021-3.148 12.67-8.822 1.448-4.984-.663-9.669-5.021-11.14a8.6 8.6 0 0 0-1.471-.355 9.226 9.226 0 0 0-1.386-.102z" fill="#111"/><path d="M509.43 350.982c-5.837-.885-12.028 3.396-13.81 9.528-1.79 6.162 1.494 11.882 7.332 12.767 5.229.793 10.764-2.598 13.125-7.778.262-.574.486-1.171.664-1.785a12.3 12.3 0 0 0 .38-1.796c.728-5.415-2.455-10.142-7.691-10.936" fill="#3658c1"/><path d="M504.502 374.392a11.4 11.4 0 0 1-1.699-.127c-2.947-.447-5.431-2.039-6.993-4.482-1.714-2.683-2.133-6.164-1.148-9.552 1.919-6.602 8.608-11.195 14.92-10.238 5.673.86 9.34 6.044 8.531 12.058a13.18 13.18 0 0 1-.411 1.942 14.02 14.02 0 0 1-.715 1.922c-2.333 5.121-7.396 8.478-12.484 8.478zm3.367-22.528c-4.909 0-9.783 3.747-11.288 8.924-.823 2.834-.49 5.72.914 7.917 1.247 1.951 3.238 3.223 5.608 3.583 4.676.713 9.869-2.386 12.063-7.204a11.845 11.845 0 0 0 .963-3.297c.671-4.985-2.21-9.112-6.85-9.816a9.42 9.42 0 0 0-1.411-.106z" fill="#111"/><path d="M586.015 383.518c-5.05-.766-10.354 2.312-12.854 7.145a13.223 13.223 0 0 0-.956 2.383c-.114.392-.208.782-.281 1.169-1.081 5.698 2.156 10.738 7.622 11.567 5.807.881 11.989-3.37 13.78-9.532 1.791-6.164-1.503-11.85-7.311-12.731" fill="#3658c1"/><path d="M581.073 406.896c-.56 0-1.119-.041-1.677-.125-2.777-.421-5.172-1.874-6.741-4.09-1.706-2.407-2.313-5.48-1.712-8.652.077-.416.18-.836.302-1.26.256-.879.603-1.741 1.029-2.565 2.762-5.34 8.477-8.496 13.892-7.674 2.94.446 5.419 2.035 6.978 4.473 1.709 2.673 2.125 6.146 1.143 9.526-1.748 6.018-7.452 10.368-13.213 10.368zm3.412-22.492c-4.108 0-8.335 2.658-10.435 6.719a12.28 12.28 0 0 0-.885 2.203c-.104.358-.19.717-.257 1.073-.501 2.636-.011 5.166 1.378 7.126 1.253 1.768 3.174 2.929 5.41 3.268 5.324.808 11.02-3.148 12.669-8.822.821-2.827.49-5.704-.908-7.891-1.243-1.946-3.229-3.214-5.593-3.573a9.23 9.23 0 0 0-1.38-.103z" fill="#111"/><path d="M656.072 435.009c-5.807-.881-11.989 3.369-13.78 9.532-1.614 5.556.897 10.75 5.662 12.364.52.178 1.068.312 1.64.399.582.088 1.169.124 1.754.113 5.276-.103 10.453-4.124 12.065-9.672 1.791-6.164-1.503-11.85-7.341-12.736" fill="#3658c1"/><path d="M651.128 458.419a11.24 11.24 0 0 1-1.686-.126 10.547 10.547 0 0 1-1.813-.441c-5.317-1.802-8.026-7.645-6.298-13.59 1.917-6.602 8.593-11.2 14.89-10.242 2.957.449 5.446 2.042 7.009 4.487 1.707 2.671 2.123 6.14 1.142 9.517-1.717 5.909-7.187 10.279-13.005 10.393l-.239.002zm3.39-22.526c-4.896 0-9.762 3.749-11.266 8.928-1.446 4.978.665 9.662 5.022 11.138a8.888 8.888 0 0 0 3.053.458c4.887-.095 9.669-3.943 11.125-8.951.82-2.824.49-5.697-.906-7.882-1.248-1.952-3.245-3.226-5.625-3.586a9.313 9.313 0 0 0-1.403-.105z" fill="#111"/><path d="M716.942 371.811c-5.837-.885-12.028 3.397-13.819 9.559-1.782 6.132 1.503 11.852 7.34 12.738 5.235.794 10.782-2.61 13.128-7.78.257-.564.476-1.151.652-1.754.179-.614.306-1.226.386-1.828.722-5.428-2.459-10.142-7.687-10.935" fill="#3658c1"/><path d="M712.016 395.224c-.568 0-1.138-.042-1.703-.127-2.949-.447-5.435-2.041-6.998-4.488-1.712-2.677-2.132-6.146-1.151-9.518 1.922-6.618 8.613-11.226 14.929-10.269 5.661.859 9.328 6.042 8.528 12.056a13.446 13.446 0 0 1-.417 1.975 14.215 14.215 0 0 1-.701 1.89c-2.327 5.124-7.391 8.481-12.486 8.481zm3.368-22.53c-4.911 0-9.791 3.76-11.301 8.955-.818 2.818-.484 5.691.916 7.883 1.249 1.954 3.242 3.228 5.614 3.587 4.687.715 9.88-2.385 12.068-7.204.239-.526.441-1.071.602-1.621.16-.551.279-1.117.354-1.68.663-4.985-2.217-9.112-6.847-9.814a9.365 9.365 0 0 0-1.407-.105z" fill="#111"/><path d="M760.058 450.782a10.252 10.252 0 0 0-1.756-.113c-5.268.098-10.414 4.097-12.026 9.645-1.79 6.162 1.464 11.877 7.303 12.763s11.998-3.402 13.789-9.564c1.612-5.548-.874-10.704-5.642-12.325a9.668 9.668 0 0 0-1.669-.407" fill="#3658c1"/><path d="M755.103 474.191c-.559 0-1.117-.041-1.673-.125-2.939-.446-5.415-2.032-6.971-4.465-1.713-2.681-2.13-6.167-1.143-9.565 1.714-5.898 7.167-10.257 12.967-10.366.647-.015 1.3.028 1.925.124.632.096 1.252.247 1.843.449 5.386 1.831 8.027 7.529 6.278 13.55-1.754 6.035-7.465 10.398-13.227 10.398zm3.413-22.523c-.064 0-.129 0-.194.002-4.947.092-9.608 3.845-11.085 8.924-.826 2.844-.495 5.735.908 7.93 1.24 1.941 3.225 3.207 5.586 3.565 5.336.816 11.023-3.161 12.679-8.854 1.439-4.956-.665-9.624-5.004-11.099a8.645 8.645 0 0 0-1.498-.365 9.232 9.232 0 0 0-1.392-.104z" fill="#111"/><path d="M677.445 614.947c-5.839-.886-12.02 3.364-13.811 9.528-1.79 6.162 1.494 11.882 7.333 12.768 5.227.793 10.764-2.598 13.125-7.778.26-.575.486-1.171.664-1.785.176-.606.301-1.204.381-1.795.737-5.437-2.455-10.142-7.692-10.936" fill="#3658c1"/><path d="M672.515 638.358c-.567 0-1.134-.042-1.698-.128-2.948-.447-5.433-2.039-6.995-4.483-1.714-2.683-2.133-6.164-1.147-9.552 1.917-6.602 8.616-11.191 14.92-10.236 5.681.86 9.35 6.045 8.534 12.059a13.56 13.56 0 0 1-.412 1.94 14.63 14.63 0 0 1-.713 1.918c-2.336 5.124-7.4 8.481-12.488 8.482zm3.367-22.528c-4.909 0-9.783 3.746-11.288 8.924-.823 2.834-.491 5.72.913 7.916 1.247 1.951 3.239 3.224 5.61 3.584 4.683.704 9.868-2.387 12.064-7.205a11.632 11.632 0 0 0 .964-3.3c.676-4.981-2.205-9.107-6.851-9.813a9.556 9.556 0 0 0-1.412-.105z" fill="#111"/><path d="M652.069 546.314a10.527 10.527 0 0 0-1.754-.113c-5.276.103-10.453 4.124-12.065 9.672-1.781 6.13 1.503 11.85 7.341 12.736 5.839.886 12-3.402 13.781-9.532 1.615-5.558-.876-10.75-5.663-12.366a9.606 9.606 0 0 0-1.64-.397" fill="#3658c1"/><path d="M647.118 569.723c-.56 0-1.119-.041-1.677-.126-2.949-.446-5.435-2.04-6.999-4.486-1.711-2.677-2.131-6.146-1.151-9.517 1.716-5.908 7.186-10.279 13.005-10.393a11.53 11.53 0 0 1 1.923.123c.615.094 1.225.241 1.812.439 5.321 1.797 8.031 7.641 6.303 13.593-1.748 6.017-7.453 10.366-13.215 10.366zm3.388-22.523c-.058 0-.115 0-.174.002-4.884.095-9.666 3.943-11.121 8.951-.818 2.817-.484 5.689.917 7.881 1.248 1.953 3.242 3.228 5.613 3.587 5.36.81 11.023-3.148 12.672-8.822 1.447-4.983-.665-9.668-5.023-11.14-.476-.16-.97-.28-1.47-.356a9.67 9.67 0 0 0-1.414-.103z" fill="#111"/><path d="M438.829 610.992c-5.262-.798-10.811 2.604-13.158 7.773a12.66 12.66 0 0 0-1.038 3.582c-.722 5.428 2.461 10.144 7.717 10.941 5.807.881 11.998-3.402 13.789-9.566 1.781-6.13-1.503-11.85-7.311-12.731" fill="#3658c1"/><path d="M433.872 634.403c-.558 0-1.116-.041-1.672-.126-5.679-.86-9.357-6.046-8.557-12.062a13.63 13.63 0 0 1 1.118-3.864c2.586-5.696 8.567-9.213 14.218-8.349 2.934.444 5.408 2.034 6.968 4.475 1.713 2.68 2.134 6.151 1.153 9.524-1.754 6.035-7.465 10.4-13.229 10.4zm3.437-22.524c-4.313 0-8.749 2.946-10.727 7.3a12.322 12.322 0 0 0-.603 1.62 11.825 11.825 0 0 0-.354 1.683c-.664 4.984 2.228 9.114 6.875 9.819 5.328.807 11.025-3.164 12.68-8.856.819-2.819.484-5.694-.918-7.889-1.245-1.948-3.229-3.218-5.584-3.575a9.23 9.23 0 0 0-1.37-.102z" fill="#111"/><path d="M507.359 506.173c-5.255-.797-10.794 2.594-13.154 7.774l-1.046 3.581c-.727 5.415 2.459 10.142 7.722 10.94 5.807.881 11.998-3.402 13.78-9.532 1.79-6.162-1.494-11.882-7.302-12.763" fill="#3658c1"/><g fill="#111"><path d="M502.407 529.582c-.56 0-1.119-.041-1.677-.125-5.688-.863-9.369-6.048-8.563-12.062.007-.05.018-.099.031-.147l1.045-3.581c.014-.046.03-.091.05-.134 2.595-5.693 8.569-9.199 14.216-8.348 2.931.445 5.402 2.032 6.961 4.47 1.717 2.685 2.136 6.17 1.15 9.561-1.748 6.018-7.453 10.368-13.214 10.368zm-8.267-11.849c-.631 4.951 2.258 9.043 6.891 9.746 5.326.807 11.021-3.148 12.67-8.822.824-2.837.49-5.726-.915-7.926-1.244-1.945-3.225-3.212-5.577-3.569-4.682-.715-9.853 2.356-12.065 7.136l-1.003 3.436zm-19.751-217.591a1 1 0 0 1-.96-1.279l12.159-41.849a1 1 0 1 1 1.92.557l-12.159 41.849a1 1 0 0 1-.96.722zm-148.775 97.219a.96.96 0 0 1-.151-.011l-52.343-7.94a1 1 0 0 1-.838-1.139.992.992 0 0 1 1.139-.839l51.477 7.809 5.979-20.579a.996.996 0 0 1 1.108-.71l52.737 7.937a1 1 0 1 1-.297 1.978l-51.873-7.806-5.979 20.58a.998.998 0 0 1-.959.721zm246.815-4.004a.96.96 0 0 1-.151-.011l-19.4-2.943a1 1 0 0 1-.811-1.261l5.192-18.352-40.666-6.088a1.001 1.001 0 0 1 .297-1.978l41.789 6.256a1.001 1.001 0 0 1 .813 1.261l-5.193 18.354 18.28 2.773a1 1 0 0 1-.149 1.989zM425.02 621.519c-.052 0-.104-.004-.156-.012l-46.346-7.293a.998.998 0 0 1-.802-1.274l6.038-20.199-62.813-9.5a.999.999 0 1 1 .299-1.977l63.952 9.672a.998.998 0 0 1 .808 1.274l-6.04 20.206 45.215 7.114a1.002 1.002 0 0 1-.154 1.989z"/><path d="M425.724 523.385a.96.96 0 0 1-.151-.011l-66.955-10.156a1 1 0 0 1 .301-1.978l66.09 10.024 4.557-15.619a1 1 0 0 1 1.112-.708l63.187 9.709a1 1 0 0 1 .836 1.14.994.994 0 0 1-1.141.836l-62.319-9.576-4.557 15.618a1 1 0 0 1-.959.72zm323.522 114.972c-.05 0-.1-.004-.149-.011l-64.488-9.679a1.001 1.001 0 0 1-.841-1.138c.083-.546.579-.911 1.138-.841l63.629 9.55 5.196-17.475a1 1 0 0 1 1.109-.703l42.612 6.463a.999.999 0 1 1-.301 1.977l-41.751-6.332-5.196 17.474a1.001 1.001 0 0 1-.958.715zm-97.177-91.043a1.002 1.002 0 0 1-.961-1.278l16.106-55.67-25.869-3.956a1.003 1.003 0 0 1-.809-1.265l8.097-28.118a1 1 0 0 1 1.922.554l-7.782 27.024 25.871 3.956a.997.997 0 0 1 .809 1.266l-16.423 56.766a1 1 0 0 1-.961.722zm107.989-95.532a1 1 0 0 1-.959-1.283l5.579-18.966a.991.991 0 0 1 1.109-.707l75.264 11.416a1 1 0 0 1-.301 1.978l-74.4-11.285-5.333 18.128a1 1 0 0 1-.959.718zm35.039-55.555c-.05 0-.1-.003-.149-.011l-70.853-10.653a1 1 0 1 1 .297-1.978l69.988 10.522 10.825-37.256a1 1 0 1 1 1.92.557l-11.069 38.097a.998.998 0 0 1-.959.721z"/><path d="M332.368 537.192a1.001 1.001 0 0 1-.75-1.662c29.218-33.1 70.434-54.632 122.504-63.998 52.43-9.43 113.371-3.957 141.748 12.732a1 1 0 1 1-1.014 1.724c-28.014-16.474-88.363-21.842-140.381-12.487-51.615 9.284-92.446 30.599-121.357 63.353a.999.999 0 0 1-.75.338z"/></g><path d="m1034.714 773.082-262.36-39.796c-17.041-2.585-35.081 9.933-40.308 27.925l-36.098 124.238c-5.227 17.989 4.337 34.643 21.378 37.228l262.36 39.796c17.041 2.585 35.066-9.885 40.293-27.873l36.098-124.238c5.228-17.991-4.322-34.694-21.363-37.279" fill="#fff"/><path d="M984.174 963.809c-1.549 0-3.098-.113-4.64-.348l-262.36-39.796c-8.051-1.221-14.825-5.556-19.075-12.205-4.697-7.349-5.831-16.931-3.111-26.29l36.098-124.238c5.357-18.44 23.943-31.293 41.419-28.634l262.36 39.796c8.035 1.219 14.801 5.551 19.05 12.198 4.709 7.367 5.847 16.971 3.122 26.349l-36.099 124.238c-4.878 16.788-20.751 28.93-36.764 28.93zm-216.33-229.86c-15.152 0-30.195 11.563-34.839 27.542l-36.098 124.238c-2.559 8.805-1.51 17.791 2.877 24.654 3.935 6.157 10.217 10.172 17.69 11.306l262.36 39.796c16.516 2.507 34.102-9.679 39.183-27.164l36.099-124.238c2.563-8.824 1.512-17.831-2.887-24.713-3.935-6.154-10.208-10.167-17.666-11.299l-262.36-39.796a29.125 29.125 0 0 0-4.359-.326z" fill="#111"/><path d="m931.189 816.789-137.33-20.831c-16.476-2.499-33.948 9.587-39.002 26.98l-2.18 7.503c-5.054 17.393 4.216 33.535 20.692 36.034l137.307 20.827c-7.742-9.597-10.544-23.365-6.364-37.751 4.184-14.4 14.433-26.214 26.877-32.763" fill="#b0c3ff"/><path d="M910.676 888.303c-.05 0-.1-.004-.15-.012l-137.308-20.827c-7.792-1.182-14.354-5.384-18.476-11.832-4.556-7.127-5.659-16.41-3.026-25.47l2.181-7.504c5.184-17.835 23.166-30.255 40.111-27.688l137.331 20.831a.999.999 0 0 1 .315 1.873c-12.783 6.727-22.398 18.447-26.383 32.157-3.961 13.635-1.708 27.063 6.183 36.844a1.001 1.001 0 0 1-.778 1.628zm-121.19-91.672c-14.648 0-29.187 11.159-33.669 26.586l-2.181 7.504c-2.471 8.505-1.453 17.192 2.792 23.834 3.807 5.955 9.876 9.838 17.091 10.933l134.884 20.459c-7.085-10.083-8.937-23.298-5.051-36.674 3.863-13.296 12.829-24.788 24.809-31.932l-134.453-20.395a28.222 28.222 0 0 0-4.222-.315z" fill="#111"/><path d="M973.934 885.625c-4.504 4.423-9.705 8.026-15.285 10.58l21.238 36.984c.995 1.733 2.657 2.776 4.547 3.063s4.003-.184 5.904-1.477l1.614-1.157c3.751-2.595 5.181-7.515 3.206-11.033z" fill="#3658c1"/><path d="M985.526 937.334c-.416 0-.831-.031-1.241-.094-2.277-.346-4.147-1.607-5.265-3.553l-21.237-36.984a.999.999 0 0 1 .451-1.407c5.503-2.521 10.55-6.014 14.999-10.385a.984.984 0 0 1 .837-.276.998.998 0 0 1 .731.492l21.224 36.96c2.217 3.946.644 9.484-3.503 12.353l-1.601 1.147c-1.686 1.147-3.559 1.747-5.396 1.747zm-25.469-40.686 20.697 36.043c.808 1.406 2.168 2.319 3.831 2.572 1.713.258 3.56-.206 5.19-1.316l1.594-1.143c3.335-2.307 4.637-6.667 2.916-9.729l-20.582-35.843c-4.111 3.861-8.693 7.022-13.646 9.416z" fill="#111"/><path d="M959.015 811.67c-9.476-1.437-19.179.57-27.826 5.119-12.444 6.549-22.693 18.363-26.877 32.763-4.18 14.387-1.378 28.155 6.364 37.751 5.388 6.678 13.165 11.337 22.65 12.776 8.571 1.3 17.331-.214 25.323-3.875 5.579-2.554 10.781-6.157 15.285-10.58 6.442-6.331 11.455-14.342 14.08-23.376 7.09-24.4-5.885-47.072-29-50.578" fill="#3658c1"/><path d="M939.454 901.538c-2.111 0-4.208-.155-6.277-.47-9.453-1.435-17.503-5.977-23.278-13.137-8.307-10.296-10.692-24.387-6.546-38.658 4.134-14.228 14.11-26.39 27.371-33.368 9.205-4.843 19.045-6.65 28.44-5.224 10.801 1.639 19.896 7.464 25.609 16.402 6.335 9.91 7.866 22.829 4.2 35.444-2.586 8.9-7.544 17.134-14.339 23.81-4.616 4.534-9.854 8.159-15.569 10.776-6.393 2.928-13.07 4.424-19.612 4.424zm13.397-89.33c-7.101 0-14.325 1.852-21.196 5.467-12.783 6.727-22.398 18.447-26.383 32.157-3.961 13.635-1.708 27.063 6.183 36.844 5.456 6.764 13.071 11.058 22.022 12.416 8.092 1.225 16.654-.086 24.757-3.796 5.503-2.521 10.55-6.014 14.999-10.385 6.551-6.437 11.33-14.369 13.821-22.941 3.504-12.061 2.059-24.384-3.965-33.809-5.398-8.446-14.002-13.951-24.226-15.503a40.105 40.105 0 0 0-6.013-.45z" fill="#111"/><path d="M955.78 822.802c-17.324-2.628-35.657 10.054-40.971 28.342-5.299 18.237 4.428 35.175 21.752 37.803 17.278 2.621 35.608-10.061 40.907-28.298 5.314-18.288-4.41-35.226-21.689-37.846" fill="#fff"/><path d="M941.119 890.288c-1.571 0-3.144-.115-4.708-.353-8.183-1.241-15.07-5.648-19.393-12.41-4.769-7.461-5.924-17.179-3.169-26.66 5.437-18.714 24.305-31.751 42.081-29.051 8.153 1.236 15.02 5.634 19.333 12.382 4.776 7.474 5.931 17.217 3.165 26.732-4.95 17.037-21.06 29.359-37.31 29.359zm10.069-66.829c-15.411 0-30.704 11.739-35.419 27.965-2.594 8.928-1.524 18.049 2.935 25.024 4.007 6.269 10.402 10.356 18.008 11.511 16.774 2.535 34.638-9.83 39.797-27.589 2.604-8.961 1.536-18.108-2.931-25.097-3.998-6.255-10.372-10.333-17.948-11.482a29.568 29.568 0 0 0-4.441-.332z" fill="#111"/><path d="M357.511 36.683 124.482 1.337c-16.995-2.578-35.081 9.933-40.308 27.925l-45.7 157.285c-5.227 17.989 4.383 34.65 21.378 37.228l233.029 35.347c17.043 2.585 35.115-9.877 40.342-27.866l45.7-157.285c5.228-17.991-4.368-34.701-21.411-37.286z" fill="#fff"/><path d="M297.383 260.458c-1.554 0-3.106-.114-4.653-.348L59.701 224.763c-8.039-1.219-14.81-5.557-19.063-12.213-4.702-7.355-5.841-16.935-3.124-26.283l45.7-157.285c5.358-18.44 23.942-31.28 41.418-28.634l233.029 35.347c8.05 1.221 14.83 5.564 19.09 12.229 4.71 7.369 5.852 16.964 3.131 26.325l-45.7 157.285c-4.877 16.786-20.765 28.923-36.799 28.924zM119.972 1.999c-15.151 0-30.194 11.562-34.838 27.541L39.433 186.825c-2.555 8.795-1.502 17.779 2.889 24.648 3.939 6.164 10.219 10.181 17.68 11.313l233.029 35.347c16.541 2.51 34.15-9.671 39.231-27.156l45.7-157.285c2.559-8.809 1.504-17.808-2.896-24.69-3.945-6.172-10.233-10.195-17.706-11.328L124.332 2.325a28.995 28.995 0 0 0-4.359-.327z" fill="#111"/><path d="m138.425 134.517-48.157-7.305-18.063 62.168 48.157 7.304z" fill="#3658c1"/><path d="M120.363 197.684a.96.96 0 0 1-.151-.011l-48.157-7.305a1.002 1.002 0 0 1-.809-1.267l18.063-62.167a.997.997 0 0 1 1.11-.71l48.157 7.305a1.002 1.002 0 0 1 .809 1.267l-18.063 62.167a.998.998 0 0 1-.959.721zm-46.879-9.122 46.162 7.002 17.5-60.23-46.162-7.002z" fill="#111"/><path d="m212.714 95.039-48.209-7.312-32.185 110.771 48.208 7.313z" fill="#3658c1"/><path d="M180.529 206.811a.96.96 0 0 1-.151-.011l-48.208-7.313a1.002 1.002 0 0 1-.809-1.267l32.186-110.771a.997.997 0 0 1 1.11-.71l48.208 7.313a1.002 1.002 0 0 1 .809 1.267L181.488 206.09a.998.998 0 0 1-.959.721zm-46.93-9.13 46.213 7.01 31.622-108.833-46.213-7.01z" fill="#111"/><path d="m268.468 119.167-48.206-7.312-27.824 95.762 48.206 7.312z" fill="#3658c1"/><path d="M240.645 215.929a.96.96 0 0 1-.151-.011l-48.206-7.312a1.002 1.002 0 0 1-.809-1.267l27.824-95.762a.998.998 0 0 1 1.11-.71l48.206 7.312a1.002 1.002 0 0 1 .809 1.267l-27.824 95.762a.998.998 0 0 1-.959.721zm-46.928-9.129 46.211 7.009 27.261-93.824-46.211-7.009z" fill="#111"/><path d="m345.206 71.085-48.205-7.312-44.445 152.963 48.206 7.312z" fill="#3658c1"/><path d="M300.762 225.048a.96.96 0 0 1-.151-.011l-48.205-7.312a1.002 1.002 0 0 1-.809-1.267l44.444-152.963a.997.997 0 0 1 1.11-.71l48.206 7.312a1.002 1.002 0 0 1 .809 1.267l-44.445 152.963a.998.998 0 0 1-.959.721zm-46.927-9.129 46.21 7.009 43.882-151.026-46.211-7.009z" fill="#111"/><path d="m1171.167 208.046-209.256-31.741c-17.041-2.585-35.066 9.882-40.292 27.871l-45.21 155.597c-5.227 17.989 4.323 34.691 21.364 37.276l209.256 31.74c17.043 2.585 35.129-9.926 40.356-27.914l45.21-155.597c5.227-17.989-4.384-34.647-21.427-37.233z" fill="#fff"/><path d="M1111.524 430.127c-1.551 0-3.103-.114-4.646-.348l-209.256-31.74c-8.035-1.219-14.801-5.552-19.051-12.2-4.708-7.367-5.847-16.969-3.122-26.344l45.21-155.598c5.349-18.411 23.919-31.236 41.403-28.581l209.255 31.741c8.066 1.224 14.855 5.568 19.116 12.234 4.698 7.35 5.836 16.923 3.121 26.266l-45.21 155.597c-4.886 16.813-20.783 28.972-36.82 28.972zm-154.129-253.16c-15.148 0-30.183 11.539-34.816 27.488l-45.21 155.598c-2.563 8.822-1.511 17.829 2.888 24.709 3.935 6.155 10.208 10.168 17.666 11.299l209.256 31.74c16.54 2.507 34.156-9.693 39.246-27.205l45.21-155.597c2.554-8.79 1.502-17.767-2.886-24.631-3.946-6.173-10.243-10.198-17.732-11.334l-209.255-31.741a29.097 29.097 0 0 0-4.366-.327z" fill="#111"/><path d="m994.243 247.915-4.794 16.498" fill="#b0c3ff"/><path d="M989.449 265.413a1 1 0 0 1-.96-1.279l4.794-16.498a1 1 0 1 1 1.92.557l-4.794 16.498a1 1 0 0 1-.96.722z" fill="#111"/><path d="m1102.877 264.36-4.794 16.498" fill="#b0c3ff"/><path d="M1098.084 281.859a1 1 0 0 1-.96-1.279l4.793-16.498a1 1 0 1 1 1.92.557l-4.793 16.498a1 1 0 0 1-.96.722z" fill="#111"/><path d="m977.998 304.566-6.787 23.36" fill="#b0c3ff"/><path d="M971.211 328.926a1 1 0 0 1-.96-1.279l6.787-23.359a.999.999 0 1 1 1.92.557l-6.787 23.359a1 1 0 0 1-.96.722z" fill="#111"/><path d="m1056.191 316.246-6.787 23.36" fill="#b0c3ff"/><path d="M1049.404 340.606a1 1 0 0 1-.96-1.279l6.787-23.359a1 1 0 1 1 1.92.557l-6.787 23.359a1 1 0 0 1-.96.722z" fill="#111"/><path d="m1116.593 325.589-6.787 23.359" fill="#b0c3ff"/><path d="M1109.805 349.949a1 1 0 0 1-.96-1.279l6.788-23.359a1 1 0 1 1 1.92.557l-6.788 23.359a1 1 0 0 1-.96.722z" fill="#111"/><path d="m1140.378 233.155-162.886-24.707-10.267 35.336 162.886 24.707z" fill="#b0c3ff"/><path d="M1130.112 269.491a.96.96 0 0 1-.151-.011l-162.887-24.708a1.002 1.002 0 0 1-.809-1.267l10.268-35.335a.997.997 0 0 1 1.11-.71l162.887 24.707a1.002 1.002 0 0 1 .809 1.267l-10.268 35.336a.998.998 0 0 1-.959.721zm-161.608-26.525 160.892 24.405 9.704-33.398-160.892-24.404-9.704 33.398z" fill="#111"/><path d="m1033.47 271.057-87.61-13.289-11.552 39.758 87.61 13.289z" fill="#b0c3ff"/><path d="M1021.92 311.815a.96.96 0 0 1-.151-.011l-87.61-13.289a1.002 1.002 0 0 1-.809-1.267l11.552-39.757a.998.998 0 0 1 1.11-.71l87.61 13.289a1.002 1.002 0 0 1 .809 1.267l-11.552 39.757a.998.998 0 0 1-.959.721zm-86.332-15.106 85.615 12.986 10.988-37.82-85.615-12.986z" fill="#111"/><path d="m1141.84 287.495-87.562-13.282-11.551 39.758 87.561 13.281z" fill="#b0c3ff"/><path d="M1130.289 328.253a.96.96 0 0 1-.151-.011l-87.562-13.282a1.002 1.002 0 0 1-.809-1.267l11.552-39.757a.997.997 0 0 1 1.11-.71l87.562 13.282a1.002 1.002 0 0 1 .809 1.267l-11.552 39.757a.998.998 0 0 1-.959.721zm-86.283-15.099 85.566 12.979 10.988-37.82-85.566-12.979z" fill="#111"/><path d="m993.809 331.767-45.429-6.89-13.933 47.953 45.429 6.891z" fill="#b0c3ff"/><path d="M979.878 380.721a.96.96 0 0 1-.151-.011l-45.43-6.891a1.002 1.002 0 0 1-.809-1.267l13.933-47.954a.994.994 0 0 1 1.11-.71l45.43 6.891a1.002 1.002 0 0 1 .809 1.267L980.837 380a.998.998 0 0 1-.959.721zm-44.151-8.708 43.435 6.588 13.369-46.016-43.435-6.588z" fill="#111"/><path d="m1072.005 343.628-45.429-6.89-13.934 47.953 45.43 6.891z" fill="#b0c3ff"/><path d="M1058.073 392.582a.96.96 0 0 1-.151-.011l-45.43-6.891a1.002 1.002 0 0 1-.809-1.267l13.934-47.954a1 1 0 0 1 1.11-.71l45.43 6.891a1.002 1.002 0 0 1 .809 1.267l-13.934 47.954a.998.998 0 0 1-.959.721zm-44.151-8.708 43.435 6.588 13.37-46.016-43.435-6.588z" fill="#111"/><path d="m1132.404 352.79-45.429-6.891-13.934 47.954 45.43 6.891z" fill="#b0c3ff"/><path d="M1118.471 401.744a.96.96 0 0 1-.151-.011l-45.429-6.891a1.002 1.002 0 0 1-.809-1.267l13.933-47.954a.997.997 0 0 1 1.11-.71l45.43 6.891a1.002 1.002 0 0 1 .809 1.267l-13.934 47.954a.998.998 0 0 1-.959.721zm-44.15-8.708 43.434 6.588 13.37-46.017-43.435-6.588-13.369 46.016z" fill="#111"/><path d="m252.849 603.952-181.34-27.506c-16.995-2.578-35.081 9.933-40.307 27.922L2.424 703.411c-5.227 17.989 4.383 34.65 21.378 37.228l181.34 27.506c17.041 2.585 35.066-9.885 40.293-27.873l28.778-99.043c5.227-17.989-4.323-34.692-21.364-37.276z" fill="#fff"/><path d="M209.629 769.481c-1.548 0-3.097-.113-4.638-.348l-181.34-27.507c-8.039-1.219-14.81-5.557-19.064-12.213-4.701-7.354-5.84-16.935-3.123-26.282l28.778-99.043c5.356-18.439 23.93-31.294 41.417-28.631l181.34 27.506c8.036 1.219 14.802 5.552 19.052 12.2 4.708 7.366 5.846 16.968 3.121 26.344l-28.777 99.043c-4.878 16.789-20.751 28.931-36.766 28.931zM66.999 577.108c-15.152 0-30.194 11.561-34.837 27.539L3.384 703.69c-2.555 8.794-1.502 17.777 2.889 24.646 3.939 6.163 10.218 10.182 17.68 11.313l181.34 27.507c16.525 2.506 34.103-9.681 39.183-27.165l28.777-99.043c2.563-8.821 1.512-17.827-2.887-24.708-3.935-6.156-10.208-10.169-17.667-11.301l-181.34-27.506a29.135 29.135 0 0 0-4.359-.326z" fill="#111"/><path d="M147.813 639.644C107.75 633.567 65.78 661.29 65.78 661.29s22.996 37.577 63.059 43.654c40.109 6.084 82.079-21.639 82.079-21.639s-22.996-37.577-63.105-43.661" fill="#b0c3ff"/><path d="M140.613 706.805c-3.97 0-7.956-.271-11.924-.873-40.06-6.075-63.529-43.741-63.762-44.121a.998.998 0 0 1 .302-1.355c.423-.28 42.75-27.864 82.734-21.801 40.105 6.083 63.575 43.749 63.808 44.129a.998.998 0 0 1-.302 1.355c-.381.252-34.777 22.666-70.856 22.666zm-73.445-45.212c3.67 5.522 25.983 36.927 61.822 42.362 36.176 5.48 74.443-17.158 80.541-20.954-3.671-5.522-25.987-36.928-61.868-42.37-36.135-5.482-74.398 17.166-80.495 20.962z" fill="#111"/><path d="M131.771 694.854c-11.802-1.79-18.437-13.343-14.817-25.802s16.125-21.109 27.927-19.319 18.437 13.343 14.817 25.802-16.125 21.109-27.927 19.319" fill="#3658c1"/><path d="M134.878 696.087c-1.087 0-2.174-.08-3.257-.244-5.664-.858-10.433-3.912-13.428-8.599-3.306-5.171-4.106-11.903-2.198-18.471 3.749-12.903 16.766-21.889 29.037-20.028 5.664.859 10.434 3.913 13.429 8.6 3.305 5.171 4.105 11.903 2.197 18.471-3.418 11.764-14.549 20.271-25.78 20.271zm-2.956-2.221c11.303 1.702 23.337-6.634 26.816-18.609 1.747-6.014 1.032-12.149-1.963-16.835-2.68-4.193-6.957-6.928-12.044-7.7-11.291-1.703-23.336 6.634-26.816 18.61-1.747 6.014-1.031 12.15 1.963 16.835 2.681 4.193 6.957 6.928 12.044 7.699zm105.507-31.95a1 1 0 0 1-.963-1.27l7.97-28.368-26.479-4.018a.999.999 0 0 1-.838-1.139.994.994 0 0 1 1.139-.838l27.598 4.187a1 1 0 0 1 .812 1.259l-8.275 29.458a1 1 0 0 1-.962.729zm-23.064 80.178a.96.96 0 0 1-.151-.012l-26.962-4.09a.999.999 0 0 1-.838-1.139.993.993 0 0 1 1.139-.838l26.096 3.958 7.994-27.511a.994.994 0 0 1 1.239-.681 1 1 0 0 1 .681 1.239l-8.238 28.352a1 1 0 0 1-.959.721zM57.508 718.133a.96.96 0 0 1-.151-.012l-26.702-4.051a.999.999 0 0 1-.809-1.267l8.183-28.161a1 1 0 1 1 1.92.558l-7.863 27.064 25.573 3.88a1 1 0 0 1-.149 1.989zm-3.539-84.044a1 1 0 0 1-.961-1.276l8.503-29.617a.99.99 0 0 1 1.117-.711l27.915 4.427a.999.999 0 0 1 .831 1.144.995.995 0 0 1-1.144.831l-27.042-4.288-8.259 28.768a1 1 0 0 1-.961.724z" fill="#111"/></svg></g><g transform="translate(699.6 568.8) rotate(-23.755877205912444 -131.4 144.0) scale(-1.2207527975584946 1.2152001282711247)"><svg width="215.277" height="236.998" viewBox="0 0 215.277 236.998"><path d="M135.252 17.667c-.16-1.145-.714-2.076-1.517-2.672L115.873 1.728c.803.597 1.357 1.527 1.517 2.673l2.845 21.058 17.862 13.266z" fill="#3658C1"/><path d="M138.097 39.725a.998.998 0 0 1-.596-.197l-17.862-13.266a1.002 1.002 0 0 1-.395-.669l-2.845-21.058c-.117-.84-.516-1.554-1.122-2.004a1 1 0 1 1 1.195-1.604l17.859 13.265c1.04.772 1.718 1.957 1.911 3.336l.001.005 2.845 21.058a1 1 0 0 1-.991 1.134zm-16.928-14.817 15.619 11.6-2.527-18.704c-.119-.844-.517-1.556-1.123-2.005L118.466 4.9z" fill="#111"/><path d="m39.468 182.246-19.672 11.547c-.95.549-1.949.776-2.87.702a3.775 3.775 0 0 1-1.967-.723l17.862 13.267c.566.42 1.242.664 1.967.723.922.074 1.921-.153 2.87-.703l19.673-11.547z" fill="#3658C1"/><path d="M35.131 208.775c-.142 0-.283-.005-.424-.017a4.808 4.808 0 0 1-2.483-.917l-17.858-13.264-.003-.002a1 1 0 0 1 1.192-1.606c.407.302.909.485 1.45.529.749.06 1.541-.138 2.29-.571l19.666-11.543a.997.997 0 0 1 1.102.06l17.862 13.266a1.001 1.001 0 0 1-.09 1.665l-19.672 11.547c-.972.562-2.011.853-3.032.853zm-16.415-13.458 14.701 10.919c.406.302.908.485 1.452.529.747.056 1.539-.138 2.288-.572l18.364-10.779-16.118-11.971-19.101 11.211a6.48 6.48 0 0 1-1.586.663z" fill="#111"/><path d="m123.737 78.15 17.862 13.267c-4.345-3.227-9.618-5.233-15.457-5.702-4.067-.326-8.411.092-12.904 1.363-17.519 4.964-31.851 22.254-33.81 40.81-1.434 13.471 3.527 24.604 12.102 30.973l-17.862-13.267c-8.576-6.369-13.536-17.502-12.102-30.973 1.959-18.555 16.292-35.845 33.81-40.81 4.493-1.271 8.838-1.69 12.904-1.363 5.839.469 11.112 2.475 15.457 5.702" fill="#3658C1"/><path d="M91.529 159.861a.995.995 0 0 1-.595-.197l-.017-.012-17.845-13.254c-9.361-6.953-13.917-18.573-12.5-31.882 2.011-19.042 16.533-36.565 34.532-41.666 4.499-1.273 8.96-1.743 13.257-1.398 5.894.474 11.417 2.512 15.973 5.896l17.849 13.257.013.01a1 1 0 0 1-1.192 1.606l-.006-.004c-4.254-3.157-9.418-5.061-14.935-5.504-4.059-.323-8.283.122-12.552 1.329-17.244 4.886-31.159 21.689-33.088 39.952-1.34 12.587 2.926 23.545 11.704 30.065a1 1 0 0 1-.598 1.802zm14.079-86.519c-3.253 0-6.593.479-9.96 1.432-17.244 4.886-31.159 21.689-33.088 39.952-1.34 12.587 2.926 23.545 11.704 30.065l9.16 6.804c-4.167-6.543-5.952-14.79-4.991-23.813 2.011-19.042 16.534-36.565 34.532-41.666 4.499-1.272 8.957-1.746 13.257-1.398 2.111.169 4.175.54 6.164 1.101l-9.245-6.866c-4.255-3.16-9.421-5.064-14.941-5.508a32.286 32.286 0 0 0-2.592-.103z" fill="#111"/><path d="m77.175 198.271 17.862 13.267c-12.563-1.088-23.916-5.461-33.295-12.427L43.88 185.844c9.379 6.966 20.733 11.339 33.295 12.427" fill="#3658C1"/><path d="M95.038 212.537a.844.844 0 0 1-.087-.004c-12.451-1.078-24.14-5.442-33.805-12.62l-17.862-13.267a1 1 0 0 1 1.192-1.606l.02.015c9.363 6.948 20.692 11.173 32.765 12.219.185.016.361.083.51.193l17.862 13.267a1 1 0 0 1-.595 1.803zm-37.859-18.061 5.159 3.832c8.413 6.248 18.414 10.297 29.117 11.815l-14.649-10.881c-6.846-.621-13.459-2.236-19.627-4.766z" fill="#111"/><path d="M201.266 44.276a3.69 3.69 0 0 0-.954-1.052L182.45 29.957c.372.276.695.628.954 1.053l12.411 20.611 17.862 13.267z" fill="#3658C1"/><path d="M213.678 65.889a.998.998 0 0 1-.596-.197L195.22 52.425a.99.99 0 0 1-.26-.287l-12.412-20.612a2.696 2.696 0 0 0-.694-.766 1 1 0 0 1 1.193-1.605l17.862 13.267a4.689 4.689 0 0 1 1.213 1.338l12.412 20.612a.998.998 0 0 1-.185 1.256.99.99 0 0 1-.671.261zm-17.107-14.952 13.638 10.129-9.799-16.272a2.704 2.704 0 0 0-.694-.767l-13.218-9.818z" fill="#111"/><path d="m194.592 58.121 17.861 13.267L195.848 88l-17.861-13.266z" fill="#3658C1"/><path d="M195.848 89c-.208 0-.417-.065-.596-.197l-17.861-13.267a.998.998 0 0 1-.111-1.509l16.605-16.612a.999.999 0 0 1 1.303-.096l17.862 13.267a.998.998 0 0 1 .111 1.509l-16.605 16.612a1 1 0 0 1-.708.293zm-16.335-14.379 16.239 12.062L210.928 71.5l-16.239-12.062z" fill="#111"/><path d="m195.816 51.622 17.862 13.267c1.131 1.892.624 4.666-1.225 6.499l-17.862-13.267c1.849-1.833 2.357-4.607 1.225-6.499" fill="#3658C1"/><path d="M212.453 72.388c-.208 0-.417-.065-.596-.197l-17.862-13.267a1 1 0 0 1-.108-1.512c1.512-1.5 1.972-3.768 1.07-5.276a1 1 0 0 1 1.455-1.316l17.862 13.267a.995.995 0 0 1 .262.29c1.382 2.312.802 5.56-1.379 7.723-.193.19-.448.288-.704.288zm-16.404-14.43 16.255 12.073c1.014-1.394 1.275-3.174.606-4.468l-15.49-11.505c-.032 1.341-.504 2.72-1.371 3.9z" fill="#111"/><path d="M177.987 74.734 195.848 88c1.852 6.927 2.81 14.39 2.702 22.33-.103 7.918-1.244 15.775-3.279 23.403l-17.862-13.267c2.035-7.628 3.177-15.485 3.279-23.403.108-7.94-.85-15.403-2.701-22.329" fill="#3658C1"/><path d="M195.27 134.733a.998.998 0 0 1-.596-.197l-17.861-13.267a1 1 0 0 1-.37-1.061c2.054-7.698 3.146-15.49 3.245-23.159.104-7.626-.793-15.047-2.667-22.058a1 1 0 0 1 1.562-1.061l17.861 13.267a.997.997 0 0 1 .37.544c1.921 7.188 2.842 14.792 2.735 22.602-.102 7.833-1.216 15.79-3.313 23.647a1.002 1.002 0 0 1-.966.743zm-16.722-14.666 16.126 11.978c1.815-7.232 2.782-14.534 2.875-21.729.103-7.505-.765-14.811-2.579-21.722l-15.343-11.396c1.46 6.375 2.153 13.048 2.06 19.878-.098 7.615-1.154 15.347-3.139 22.991z" fill="#111"/><path d="m110.043 218.072-25.397 4.579a4.407 4.407 0 0 1-1.175.067 3.72 3.72 0 0 1-1.939-.716l17.862 13.267c.547.407 1.21.657 1.939.716.376.03.77.01 1.175-.068l25.397-4.578z" fill="#3658C1"/><path d="M101.668 236.997c-.139 0-.277-.005-.415-.016a4.743 4.743 0 0 1-2.457-.911l-17.861-13.266h-.001a1 1 0 0 1 1.193-1.605l.005.003a2.73 2.73 0 0 0 1.418.518c.292.024.598.006.911-.053l25.405-4.58a.993.993 0 0 1 .773.181l17.861 13.267a1 1 0 0 1-.419 1.787l-25.396 4.578a5.365 5.365 0 0 1-1.017.097zM85.293 223.55l14.696 10.916c.402.299.894.479 1.423.522.296.023.601.006.908-.053l23.133-4.17-15.66-11.632z" fill="#111"/><path d="m118.147 190.868 17.861 13.267-3.395 22.178-17.862-13.267z" fill="#3658C1"/><path d="M132.613 227.313a1 1 0 0 1-.596-.197l-17.862-13.267a1 1 0 0 1-.392-.954l3.395-22.178a.998.998 0 0 1 1.585-.651l17.862 13.267a1 1 0 0 1 .392.954l-3.395 22.178a.998.998 0 0 1-.989.848zm-16.782-14.711 16.045 11.917 3.053-19.941-16.045-11.917z" fill="#111"/><path d="m114.751 213.046 17.862 13.267c-.372 2.47-2.376 4.605-4.709 5.026l-17.862-13.267c2.333-.42 4.338-2.556 4.709-5.026" fill="#3658C1"/><path d="M127.904 232.338a1 1 0 0 1-.596-.197l-17.862-13.267a1 1 0 0 1 .419-1.787c1.915-.344 3.59-2.146 3.897-4.19a.998.998 0 0 1 1.585-.653l17.862 13.267a1 1 0 0 1 .393.952c-.437 2.898-2.758 5.363-5.521 5.861a1.173 1.173 0 0 1-.177.014zm-15.78-13.966 16.004 11.887c1.566-.455 2.91-1.866 3.373-3.526l-16.176-12.015c-.618 1.554-1.778 2.87-3.201 3.654z" fill="#111"/><path d="m156.442 161.116 17.862 13.267c-10.426 12.762-23.59 23.189-38.295 29.752l-17.862-13.267c14.705-6.564 27.869-16.99 38.295-29.752" fill="#3658C1"/><path d="M136.008 205.135a1 1 0 0 1-.596-.197l-17.862-13.267a1 1 0 0 1 .188-1.716c14.263-6.367 27.379-16.558 37.929-29.472a1 1 0 0 1 1.371-.17L174.9 173.58a1.002 1.002 0 0 1 .178 1.436c-10.747 13.155-24.116 23.54-38.662 30.033a1.02 1.02 0 0 1-.408.086zm-15.907-14.061 16.032 11.908c13.758-6.246 26.428-16.051 36.729-28.424l-16.254-12.072c-10.255 12.341-22.831 22.187-36.507 28.588z" fill="#111"/><path d="m193.822 131.232 17.862 13.267c1.679 1.247 2.065 3.742.9 5.984l-17.862-13.267c1.165-2.243.779-4.737-.9-5.984" fill="#3658C1"/><path d="M212.584 151.483a1 1 0 0 1-.596-.197l-17.862-13.266a1 1 0 0 1-.292-1.264c.927-1.785.671-3.771-.608-4.721a1 1 0 0 1 1.192-1.606l.004.003 17.857 13.264c2.072 1.539 2.573 4.587 1.192 7.248a1 1 0 0 1-.887.539zM195.96 136.89l16.163 12.004c.35-1.438-.021-2.84-1.035-3.593l-14.705-10.922c.028.82-.11 1.675-.423 2.511z" fill="#111"/><path d="m176.478 165.672 17.861 13.267-20.035-4.557-17.862-13.266z" fill="#3658C1"/><path d="M194.34 179.939a.988.988 0 0 1-.222-.025l-20.036-4.557a1.001 1.001 0 0 1-.375-.172l-17.862-13.267a1 1 0 0 1 .818-1.778l20.036 4.557c.136.031.263.089.375.172l17.862 13.267a1 1 0 0 1-.596 1.803zm-19.609-6.485 15.201 3.457L176.05 166.6l-15.201-3.457z" fill="#111"/><path d="m194.722 137.216 17.862 13.267-12.991 25.212-17.861-13.267z" fill="#3658C1"/><path d="M199.593 176.695a1 1 0 0 1-.596-.197l-17.861-13.267a1 1 0 0 1-.293-1.261l12.99-25.211a1 1 0 0 1 1.485-.345l17.862 13.266a1 1 0 0 1 .293 1.261l-12.991 25.212a1 1 0 0 1-.889.542zm-16.583-14.563 16.234 12.058 12.062-23.41-16.234-12.057z" fill="#111"/><path d="m181.732 162.428 17.862 13.267c-1.078 2.112-3.247 3.405-5.254 3.244l-17.862-13.267c2.007.161 4.176-1.132 5.254-3.244" fill="#3658C1"/><path d="M194.671 179.952c-.138 0-.275-.005-.412-.017a.995.995 0 0 1-.516-.194l-17.862-13.267a1 1 0 0 1 .676-1.799c1.643.125 3.405-.979 4.284-2.702a1 1 0 0 1 1.487-.348l17.861 13.267a.998.998 0 0 1 .294 1.257c-1.166 2.287-3.51 3.803-5.812 3.803zm-15.723-13.69 15.74 11.691c1.322-.001 2.685-.775 3.576-1.999l-16.258-12.076a7.1 7.1 0 0 1-3.058 2.384z" fill="#111"/><path d="M193.661 131.119c1.815 1.204 2.263 3.785 1.062 6.098l-12.99 25.212c-1.078 2.112-3.247 3.405-5.254 3.244l-20.036-4.556c-10.426 12.762-23.59 23.189-38.295 29.752l-3.395 22.178c-.372 2.47-2.376 4.605-4.709 5.026l-25.397 4.579a4.366 4.366 0 0 1-1.175.067c-1.795-.144-3.187-1.45-3.451-3.389l-2.845-21.058c-14.604-1.265-27.574-6.969-37.707-16.025l-19.672 11.547c-.949.549-1.949.776-2.87.702-1.2-.097-2.269-.704-2.92-1.775L1.594 172.107c-1.131-1.892-.604-4.665 1.225-6.499l16.605-16.612c-1.852-6.927-2.81-14.39-2.702-22.33.103-7.918 1.238-15.753 3.274-23.381L3.75 92.611c-1.814-1.204-2.263-3.785-1.062-6.098l12.99-25.212c1.078-2.112 3.247-3.405 5.254-3.244l20.036 4.556c10.426-12.762 23.59-23.188 38.295-29.752l3.395-22.178c.372-2.47 2.397-4.604 4.729-5.024l25.376-4.58a4.428 4.428 0 0 1 1.172-.066c1.806.145 3.185 1.464 3.454 3.388l2.845 21.058c14.619 1.288 27.574 6.969 37.727 16.027l19.652-11.548c.949-.549 1.949-.776 2.87-.702 1.201.097 2.269.704 2.921 1.775l12.411 20.612c1.131 1.892.624 4.666-1.225 6.499l-16.605 16.612c1.852 6.927 2.81 14.39 2.702 22.33-.103 7.918-1.244 15.775-3.279 23.403zm-91.627 18.799c17.519-4.965 31.851-22.254 33.81-40.81 2.157-20.28-10.2-35.266-27.564-36.661-4.067-.326-8.411.092-12.904 1.363-17.519 4.964-31.851 22.254-33.81 40.81-2.16 20.288 10.186 35.274 27.541 36.669 4.074.328 8.424-.093 12.927-1.371" fill="#B0C3FF"/><path d="M83.805 223.731c-.139 0-.277-.005-.414-.017-2.287-.183-4.04-1.892-4.362-4.251l-2.738-20.27c-13.979-1.369-26.72-6.79-36.941-15.718l-19.047 11.179c-1.108.641-2.302.93-3.457.836-1.553-.125-2.9-.946-3.695-2.252L.737 172.624c-1.374-2.299-.796-5.545 1.373-7.722l16.2-16.207c-1.821-7.021-2.692-14.434-2.588-22.043.099-7.6 1.149-15.309 3.124-22.926L3.2 93.447c-2.259-1.5-2.846-4.608-1.4-7.395l12.99-25.208c1.235-2.421 3.792-3.979 6.223-3.783a.973.973 0 0 1 .142.021l19.433 4.419c10.556-12.778 23.594-22.903 37.77-29.329l3.313-21.641c.435-2.892 2.765-5.356 5.54-5.857l25.376-4.58a5.36 5.36 0 0 1 1.43-.079c2.281.183 4.035 1.889 4.364 4.245l2.739 20.275c13.997 1.391 26.745 6.812 36.96 15.719l19.027-11.182c1.109-.641 2.3-.93 3.457-.836 1.553.124 2.9.945 3.695 2.252l12.414 20.615c1.384 2.315.804 5.563-1.377 7.726L179.1 75.035c1.821 7.023 2.692 14.436 2.588 22.042-.099 7.601-1.151 15.317-3.128 22.948l15.649 10.257.004.003c2.256 1.497 2.843 4.605 1.396 7.393l-12.989 25.208c-1.235 2.421-3.793 3.979-6.224 3.783a.973.973 0 0 1-.142-.021l-19.434-4.419c-10.555 12.777-23.593 22.903-37.77 29.329l-3.313 21.641c-.436 2.896-2.757 5.361-5.52 5.858l-25.396 4.578a5.444 5.444 0 0 1-1.016.096zm-44.337-42.485a1 1 0 0 1 .667.254c10.18 9.098 23.018 14.552 37.127 15.774a1 1 0 0 1 .905.862l2.845 21.058c.197 1.448 1.17 2.417 2.54 2.526.292.021.599.005.909-.053l25.405-4.581c1.915-.344 3.59-2.146 3.897-4.19l3.396-22.181a1 1 0 0 1 .581-.762c14.263-6.367 27.379-16.558 37.929-29.472a1 1 0 0 1 .996-.342l19.961 4.54c1.631.094 3.35-1.007 4.217-2.707l12.992-25.215c.968-1.865.664-3.884-.723-4.805l-16.249-10.65a1.001 1.001 0 0 1-.418-1.094c2.054-7.698 3.146-15.49 3.245-23.159.104-7.626-.793-15.047-2.667-22.058a1 1 0 0 1 .259-.965l16.605-16.612c1.515-1.502 1.975-3.771 1.073-5.279l-12.41-20.609c-.462-.76-1.224-1.221-2.144-1.294-.745-.058-1.54.137-2.29.571L158.47 42.348a.998.998 0 0 1-1.172-.116c-10.174-9.076-23.02-14.531-37.149-15.776a1 1 0 0 1-.903-.862l-2.845-21.058c-.202-1.445-1.177-2.415-2.543-2.524a3.516 3.516 0 0 0-.908.052L87.565 6.643c-1.927.348-3.611 2.148-3.918 4.189l-3.395 22.181c-.052.336-.27.623-.581.762-14.262 6.365-27.378 16.556-37.928 29.471-.24.293-.626.425-.996.342L20.786 59.05c-1.626-.098-3.35 1.007-4.217 2.707L3.577 86.971c-.968 1.865-.663 3.886.726 4.807l16.242 10.671a1 1 0 0 1 .417 1.094c-2.051 7.685-3.141 15.469-3.24 23.136-.104 7.628.794 15.049 2.668 22.059a.998.998 0 0 1-.259.965L3.526 166.315c-1.507 1.512-1.969 3.782-1.074 5.279l12.41 20.609c.462.759 1.224 1.22 2.144 1.294.748.059 1.54-.138 2.289-.571l19.667-11.543a1 1 0 0 1 .506-.137zm52.31-28.85c-.924 0-1.841-.037-2.752-.11-8.413-.676-15.92-4.515-21.139-10.809-5.822-7.021-8.42-16.597-7.316-26.963 2.011-19.042 16.533-36.565 34.532-41.666 4.499-1.273 8.96-1.743 13.257-1.398 8.421.676 15.936 4.518 21.16 10.817 5.821 7.02 8.42 16.589 7.319 26.946-2.011 19.042-16.533 36.565-34.532 41.666-3.555 1.01-7.085 1.517-10.529 1.517zm13.83-79.054c-3.253 0-6.593.479-9.96 1.432-17.244 4.886-31.159 21.689-33.088 39.952-1.046 9.826 1.393 18.873 6.867 25.475 4.871 5.875 11.889 9.459 19.759 10.092 4.066.327 8.296-.123 12.575-1.337 17.244-4.887 31.16-21.689 33.088-39.953 1.044-9.817-1.396-18.858-6.869-25.458-4.876-5.88-11.901-9.467-19.78-10.101a32.757 32.757 0 0 0-2.592-.102z" fill="#111"/></svg></g><g transform="translate(1107.6 320.4) rotate(14.966955812946932 -200.99999999999994 201.0) scale(-1.1997349839140008 1.1984402389725612)"><svg width="335.074" height="335.436" viewBox="0 0 335.074 335.436"><path d="m330.447 171.334-37.403 8.036-16.419 17.921 37.403-8.036c1.047-.173 1.906-.644 2.524-1.319l16.419-17.921c-.619.675-1.477 1.145-2.524 1.319z" fill="#3658c1"/><path d="M276.624 198.291a1.002 1.002 0 0 1-.738-1.676l16.419-17.921a.994.994 0 0 1 .527-.302l37.403-8.036.046-.009c.79-.131 1.463-.478 1.947-1.004l.004-.004a1 1 0 0 1 1.475 1.351l-16.419 17.921c-.789.862-1.861 1.425-3.098 1.63l-37.357 8.027a.984.984 0 0 1-.209.023zm16.941-18.011-14.085 15.374 34.338-7.377c.838-.14 1.513-.489 1.997-1.017l13.415-14.642z" fill="#111"/><path d="M106.016 9.123c-.39-1.707.002-3.235.951-4.27l-16.42 17.922c-.948 1.035-1.34 2.562-.951 4.27l7.373 40.408 16.419-17.92z" fill="#3658c1"/><path d="M96.97 68.453a1 1 0 0 1-.984-.82l-7.373-40.408c-.441-1.927-.008-3.811 1.197-5.125l16.419-17.921a1 1 0 1 1 1.475 1.351c-.755.823-1.014 2.052-.713 3.371l.009.043 7.373 40.409c.056.308-.035.624-.246.855l-16.419 17.92c-.193.21-.462.325-.738.325zm7.939-59.874L91.285 23.45c-.754.823-1.014 2.052-.713 3.372l7.021 38.471 14.724-16.07-7.28-39.899a6.83 6.83 0 0 1-.128-.745z" fill="#111"/><path d="m243.966 221.253-16.419 17.921c11.982-13.078 17.924-31.745 15.117-53.296-5.882-45.165-47.965-85.894-93.993-90.969-24.065-2.653-44.445 4.965-57.573 19.295l16.419-17.921c13.129-14.33 33.508-21.948 57.573-19.295 46.028 5.075 88.111 45.803 93.993 90.969 2.807 21.551-3.135 40.218-15.117 53.296" fill="#3658c1"/><path d="M227.547 240.174a1 1 0 0 1-.737-1.676c12.252-13.373 17.53-32.014 14.863-52.491-5.817-44.664-47.586-85.085-93.111-90.104-22.705-2.503-43.383 4.413-56.726 18.977a1 1 0 0 1-1.475-1.351l16.419-17.921c13.778-15.038 35.07-22.188 58.42-19.613 46.385 5.114 88.946 46.311 94.875 91.834 2.745 21.072-2.714 40.285-15.372 54.101l-16.419 17.921a.998.998 0 0 1-.737.323zM139.513 93.399c3.044 0 6.137.17 9.268.516 46.385 5.114 88.946 46.311 94.875 91.833 1.989 15.273-.332 29.57-6.579 41.543l6.151-6.714.737.676-.737-.676c12.251-13.373 17.53-32.014 14.863-52.491-5.817-44.664-47.586-85.085-93.111-90.104-22.708-2.503-43.384 4.413-56.726 18.977l-6.219 6.788c10.588-6.757 23.505-10.348 37.478-10.348z" fill="#111"/><path d="m309.469 275.485-16.419 17.921c-.967 1.056-2.445 1.52-4.031 1.346-.983-.108-2.007-.462-2.976-1.074l16.419-17.921c.97.611 1.994.965 2.976 1.074 1.587.174 3.064-.29 4.031-1.346" fill="#3658c1"/><path d="M289.666 295.787c-.249 0-.5-.014-.755-.042-1.159-.127-2.335-.55-3.4-1.221a1 1 0 0 1-.204-1.521l16.419-17.921a1.001 1.001 0 0 1 1.271-.17c.81.511 1.692.831 2.553.926 1.293.142 2.453-.232 3.182-1.026l.001-.001a1 1 0 0 1 1.475 1.351l-.004.005-16.415 17.916c-1.012 1.102-2.486 1.704-4.123 1.704zm-2-2.4a5.72 5.72 0 0 0 1.463.371c1.294.142 2.455-.231 3.184-1.027l13.62-14.865a6.93 6.93 0 0 1-.604-.04 7.89 7.89 0 0 1-2.666-.807z" fill="#111"/><path d="m302.462 275.757-16.418 17.921-38.899-22.374 16.419-17.921z" fill="#3658c1"/><path d="M286.043 294.678a.995.995 0 0 1-.498-.133l-38.898-22.374a1.002 1.002 0 0 1-.239-1.543l16.419-17.921a1 1 0 0 1 1.236-.191l38.898 22.374a1.002 1.002 0 0 1 .239 1.543l-16.419 17.921a1 1 0 0 1-.738.324zm-37.317-23.619 37.122 21.352 15.034-16.41-37.122-21.352z" fill="#111"/><path d="M25.629 59.954a3.987 3.987 0 0 0-.459.608L8.747 87.048l16.419-17.921 16.423-26.486a3.97 3.97 0 0 1 .459-.608z" fill="#3658c1"/><path d="M8.747 88.048a1 1 0 0 1-.849-1.527L24.32 60.035c.165-.268.357-.523.571-.756l16.414-17.915.005-.006.001-.001a1 1 0 1 1 1.474 1.352l-.004.005c-.126.138-.24.29-.341.452L26.016 69.654a.965.965 0 0 1-.113.148L9.484 87.724a.998.998 0 0 1-.737.324zm26.567-37.184-8.948 9.766v.001a3.018 3.018 0 0 0-.344.455L15.228 78.494l9.137-9.973zm-9.685 9.09h.01z" fill="#111"/><path d="m263.564 253.383-16.419 17.921c-7.421 6.236-15.996 11.155-25.473 14.6l16.419-17.921c9.477-3.445 18.052-8.364 25.473-14.6" fill="#3658c1"/><path d="M221.673 286.904a1 1 0 0 1-.738-1.676l16.418-17.921a1 1 0 0 1 .396-.264c9.36-3.403 17.829-8.257 25.172-14.427a1 1 0 0 1 1.38 1.441l-16.419 17.921a1 1 0 0 1-.094.09c-7.521 6.32-16.193 11.291-25.774 14.774a.946.946 0 0 1-.341.062zm16.99-18.065-13.344 14.565c7.768-3.26 14.861-7.562 21.132-12.824l9.418-10.279c-5.318 3.432-11.075 6.29-17.206 8.538z" fill="#111"/><path d="M61.259 107.186 44.84 125.107 10.844 94.805l16.419-17.921z" fill="#3658c1"/><path d="M44.84 126.107a.999.999 0 0 1-.665-.253L10.179 95.551a.997.997 0 0 1-.072-1.422l16.419-17.921a1 1 0 0 1 1.403-.071l33.996 30.302a.997.997 0 0 1 .072 1.422l-16.419 17.921a.997.997 0 0 1-.738.325zM12.266 94.733l32.503 28.972 15.068-16.446-32.503-28.972z" fill="#111"/><path d="M27.263 76.884 10.844 94.805c-2.576-2.13-3.497-5.512-2.097-7.757l16.419-17.921c-1.4 2.245-.479 5.627 2.097 7.757" fill="#3658c1"/><path d="M10.844 95.805a.995.995 0 0 1-.637-.229c-2.993-2.474-3.985-6.368-2.308-9.056a.986.986 0 0 1 .111-.146l16.419-17.921a1 1 0 0 1 1.585 1.204c-1.13 1.812-.302 4.648 1.886 6.457a1.003 1.003 0 0 1 .1 1.447L11.581 95.48a.995.995 0 0 1-.737.325zm-1.293-8.154c-.941 1.606-.395 3.972 1.24 5.731l15.063-16.441c-1.298-1.344-2.09-2.976-2.296-4.579z" fill="#111"/><path d="m58.44 138.167-16.419 17.921c-.651-10.776.288-21.212 2.819-30.98l16.419-17.921c-2.531 9.767-3.47 20.204-2.819 30.98" fill="#3658c1"/><path d="M42.02 157.087a1 1 0 0 1-.998-.939c-.659-10.92.299-21.448 2.85-31.291a1 1 0 0 1 .231-.425l16.419-17.921a1 1 0 0 1 1.706.926c-2.498 9.64-3.436 19.959-2.789 30.669.016.271-.078.536-.261.736l-16.419 17.921c-.194.21-.463.324-.739.324zm3.726-31.488c-2.268 8.854-3.223 18.277-2.845 28.048l14.516-15.844c-.532-9.392.135-18.491 1.985-27.109z" fill="#111"/><path d="m182.671 271.982-16.419 17.921c-11.162-1.948-22.357-5.438-33.239-10.37l16.419-17.921c10.882 4.932 22.077 8.422 33.239 10.37" fill="#3658c1"/><path d="M166.253 290.903a1 1 0 0 1-.172-.015c-11.262-1.966-22.526-5.48-33.48-10.444a.998.998 0 0 1-.325-1.586l16.419-17.921a.999.999 0 0 1 1.15-.235c10.8 4.895 21.902 8.359 32.998 10.296a1.001 1.001 0 0 1 .566 1.661L166.99 290.58c-.191.207-.46.323-.737.323zm-31.566-11.716c10.227 4.52 20.714 7.76 31.199 9.636l14.824-16.181c-10.439-1.974-20.865-5.273-31.03-9.821z" fill="#111"/><path d="m241.563 314.051-34.14 2.449-16.419 17.921 34.14-2.449c1.236-.091 2.256-.591 2.966-1.366l16.419-17.921c-.711.776-1.73 1.275-2.966 1.366z" fill="#3658c1"/><path d="M191.004 335.422a1 1 0 0 1-.737-1.676l16.418-17.921a1 1 0 0 1 .666-.322l34.14-2.449c.942-.07 1.736-.429 2.296-1.04l.004-.004a1 1 0 0 1 1.475 1.351l-.004.005-16.415 17.917c-.912.996-2.167 1.579-3.629 1.687l-34.142 2.449a.885.885 0 0 1-.072.003zm16.887-17.953-14.453 15.775 31.633-2.27c.942-.07 1.738-.43 2.3-1.043l13.591-14.835zm33.672-3.418h.01z" fill="#111"/><path d="m200.232 311.668-16.419 17.921-17.56-39.686 16.418-17.921z" fill="#3658c1"/><path d="M183.813 330.589a1.001 1.001 0 0 1-.915-.595l-17.561-39.686a1 1 0 0 1 .177-1.08l16.419-17.921a1 1 0 0 1 1.652.271l17.56 39.686a1 1 0 0 1-.177 1.08l-16.418 17.921a.999.999 0 0 1-.737.324zm-16.381-40.493 16.677 37.689 14.943-16.311-16.677-37.689z" fill="#111"/><path d="m207.423 316.501-16.419 17.921a5.662 5.662 0 0 1-1.049-.021c-2.569-.283-5.106-2.225-6.142-4.812l16.419-17.921c1.036 2.587 3.573 4.528 6.142 4.812.35.038.701.046 1.049.021" fill="#3658c1"/><path d="M190.599 335.436c-.249 0-.501-.014-.753-.042-2.948-.325-5.81-2.559-6.961-5.434a.998.998 0 0 1 .191-1.047l16.418-17.921a1.002 1.002 0 0 1 1.666.304c.889 2.219 3.078 3.942 5.324 4.19.294.032.584.039.866.018a1 1 0 0 1 .81 1.673l-16.419 17.921c-.172.188-.41.303-.664.322a7.53 7.53 0 0 1-.478.016zm-5.601-5.66c1.008 1.945 3.014 3.404 5.067 3.631.164.018.326.028.486.029l14.777-16.129c-2.123-.523-4.108-1.99-5.326-3.908z" fill="#111"/><path d="m97.716 224.25-16.419 17.921c-8.382-9.003-15.64-18.846-21.571-29.24l16.419-17.921c5.93 10.394 13.189 20.237 21.571 29.24" fill="#3658c1"/><path d="M81.297 243.171a.997.997 0 0 1-.732-.319c-8.43-9.054-15.733-18.955-21.707-29.426a1.001 1.001 0 0 1 .131-1.171l16.419-17.921a1.002 1.002 0 0 1 1.606.18c5.897 10.337 13.109 20.112 21.434 29.054a1 1 0 0 1 .005 1.357l-16.419 17.921a.997.997 0 0 1-.733.324l-.004.001zm-20.339-30.103c5.654 9.799 12.489 19.085 20.336 27.627l15.063-16.441c-7.848-8.526-14.703-17.789-20.396-27.562z" fill="#111"/><path d="m76.145 195.01-16.419 17.921-40.665-2.412 16.418-17.921z" fill="#3658c1"/><path d="M59.726 213.931c-.02 0-.039 0-.059-.002l-40.666-2.412a1 1 0 0 1-.678-1.674l16.419-17.921a.987.987 0 0 1 .797-.323l40.666 2.412a1 1 0 0 1 .678 1.674l-16.419 17.921a.999.999 0 0 1-.738.325zm-38.509-4.286 38.094 2.26 14.678-16.021-38.093-2.26z" fill="#111"/><path d="M17.689 152.271c-.573-1.873-.208-3.618.842-4.764L2.113 165.428c-1.05 1.147-1.415 2.891-.842 4.764l10.911 34.995 16.419-17.92z" fill="#3658c1"/><path d="M12.181 206.187a1.004 1.004 0 0 1-.955-.702L.316 170.49c-.658-2.152-.262-4.295 1.059-5.738l16.419-17.921a1 1 0 1 1 1.475 1.351l-.003.003c-.835.914-1.068 2.33-.622 3.789l10.91 34.994a1 1 0 0 1-.217.973l-16.419 17.92a.995.995 0 0 1-.737.326zm4.279-54.938L2.85 166.104c-.838.915-1.071 2.334-.623 3.796l10.392 33.33 14.856-16.214-10.739-34.447-.001-.005a6.94 6.94 0 0 1-.275-1.315z" fill="#111"/><path d="M35.479 192.598 19.06 210.519c-3.329-.34-6.009-2.549-6.88-5.331l16.42-17.921c.87 2.782 3.551 4.992 6.879 5.331" fill="#3658c1"/><path d="M19.06 211.519a1.16 1.16 0 0 1-.102-.005c-3.612-.369-6.719-2.791-7.732-6.028a1 1 0 0 1 .217-.974l16.419-17.921a1.002 1.002 0 0 1 1.692.376c.777 2.484 3.199 4.347 6.027 4.635a1 1 0 0 1 .636 1.67l-16.419 17.921a.996.996 0 0 1-.738.326zm-5.732-6.103c.877 2.079 2.931 3.636 5.348 4.043l14.876-16.237c-2.25-.693-4.156-2.196-5.252-4.147z" fill="#111"/><path d="m125.661 288.753-16.419 17.921c-.972 1.061-2.444 1.513-4.013 1.34-1.138-.125-2.328-.58-3.415-1.368l16.419-17.921c1.087.788 2.277 1.243 3.415 1.368 1.569.173 3.04-.279 4.013-1.34" fill="#3658c1"/><path d="M105.872 309.05c-.248 0-.499-.014-.752-.042-1.351-.149-2.697-.686-3.893-1.553a1 1 0 0 1-.15-1.485l16.419-17.921a1 1 0 0 1 1.324-.134c.915.664 1.93 1.073 2.937 1.184 1.284.141 2.437-.229 3.162-1.018l.004-.004a1 1 0 1 1 1.475 1.351c-.373.407 0 0-.001.001l-16.418 17.92c-1.007 1.1-2.476 1.701-4.107 1.701zm-2.501-2.623a5.855 5.855 0 0 0 1.967.594c1.286.142 2.441-.231 3.166-1.022l13.625-14.871a7.01 7.01 0 0 1-.591-.04 7.99 7.99 0 0 1-3.14-1.062z" fill="#111"/><path d="m83.68 257.992-16.419 17.921 14.036-33.742 16.419-17.921z" fill="#3658c1"/><path d="M67.26 276.913a1 1 0 0 1-.922-1.384l14.036-33.742c.045-.107.108-.206.186-.292l16.419-17.921a.999.999 0 0 1 1.66 1.06l-14.036 33.742a1.029 1.029 0 0 1-.186.292l-16.419 17.921a.999.999 0 0 1-.738.324zm14.893-34.196-11.781 28.319 12.451-13.59 11.781-28.319zm1.527 15.275h.01z" fill="#111"/><path d="m118.233 288.725-16.419 17.921-31.834-23.01 16.419-17.921z" fill="#3658c1"/><path d="M101.814 307.646a.997.997 0 0 1-.585-.189l-31.834-23.01a1 1 0 0 1-.151-1.486l16.419-17.921a1 1 0 0 1 1.323-.135l31.834 23.01a1 1 0 0 1 .151 1.486l-16.419 17.921a1.004 1.004 0 0 1-.738.324zm-30.338-24.163 30.202 21.831 15.059-16.436-30.202-21.831z" fill="#111"/><path d="M86.399 265.715 69.98 283.636c-2.7-1.959-3.889-5.309-2.719-7.723l16.419-17.921c-1.17 2.414.019 5.764 2.719 7.723" fill="#3658c1"/><path d="M69.979 284.636a.994.994 0 0 1-.587-.191c-3.112-2.257-4.415-6.113-3.032-8.968a.997.997 0 0 1 .163-.24l16.419-17.921a1 1 0 0 1 1.637 1.111c-.951 1.963.106 4.808 2.406 6.477a1 1 0 0 1 .15 1.485L70.716 284.31a.993.993 0 0 1-.737.326zm-1.875-8.163c-.758 1.747.005 4.134 1.779 5.789l15.067-16.445c-1.47-1.361-2.398-3.106-2.65-4.838z" fill="#111"/><path d="M333.794 165.264c.931 2.973-.524 5.602-3.347 6.069l-37.403 8.036c.672 10.778-.288 21.211-2.798 30.982l33.993 30.281c2.579 2.15 3.476 5.51 2.078 7.775l-16.402 26.489c-.915 1.467-2.622 2.137-4.476 1.933-.983-.108-2.007-.462-2.976-1.074l-38.898-22.374c-7.421 6.236-15.996 11.155-25.473 14.6l7.395 40.41c.681 2.987-1.025 5.444-3.923 5.658l-34.14 2.449a5.662 5.662 0 0 1-1.049-.021c-2.569-.283-5.106-2.225-6.142-4.812l-17.56-39.686c-11.162-1.948-22.357-5.438-33.239-10.37l-23.559 26.889c-.962 1.241-2.537 1.778-4.225 1.592-1.138-.125-2.328-.58-3.415-1.368l-31.834-23.01c-2.7-1.959-3.889-5.309-2.719-7.723l14.036-33.742c-8.382-9.003-15.64-18.846-21.571-29.24l-40.666-2.412c-3.329-.34-6.009-2.549-6.88-5.331L17.69 152.269c-.909-2.971.543-5.62 3.347-6.07l37.403-8.035c-.651-10.776.288-21.212 2.819-30.98l-33.996-30.3c-2.576-2.13-3.497-5.512-2.097-7.757l16.423-26.486c.914-1.482 2.614-2.149 4.47-1.944.981.108 2.006.46 2.98 1.064l38.88 22.393c7.418-6.256 15.993-11.175 25.471-14.621l-7.374-40.409c-.682-2.987 1.028-5.423 3.926-5.637l34.116-2.472a5.751 5.751 0 0 1 1.049.02c2.573.284 5.125 2.23 6.145 4.833l17.558 39.665c11.162 1.948 22.36 5.459 33.239 10.37l23.559-26.889c.958-1.236 2.525-1.767 4.206-1.582 1.145.126 2.343.585 3.437 1.378l31.853 22.991c2.7 1.958 3.891 5.33 2.719 7.723L253.79 93.287c8.358 8.98 15.619 18.844 21.549 29.238l40.663 2.392c3.35.342 6.03 2.551 6.901 5.333zm-147.401 75.284c46.028 5.075 78.573-27.426 72.691-72.591s-47.965-85.894-93.993-90.969S86.518 104.414 92.4 149.58c5.882 45.164 47.965 85.893 93.993 90.968" fill="#FFF"/><path d="M207.019 317.515a6.86 6.86 0 0 1-.754-.042c-2.947-.325-5.81-2.559-6.961-5.434l-17.331-39.165c-10.855-1.941-21.706-5.319-32.276-10.046l-23.071 26.332c-1.114 1.44-2.98 2.159-5.087 1.927-1.351-.149-2.697-.686-3.892-1.553l-31.833-23.009c-3.114-2.259-4.417-6.114-3.033-8.969l13.766-33.097c-8.119-8.79-15.18-18.367-21-28.483l-40.126-2.38c-3.654-.372-6.762-2.795-7.775-6.031l-10.911-34.996c-.556-1.817-.378-3.591.5-5 .791-1.269 2.085-2.105 3.644-2.355l36.515-7.846c-.548-10.395.375-20.427 2.747-29.841L26.598 77.631c-2.965-2.45-3.957-6.344-2.28-9.032L40.74 42.115c1.088-1.764 3.12-2.667 5.429-2.411 1.152.127 2.327.544 3.397 1.208L87.814 62.94c7.17-5.942 15.386-10.666 24.442-14.053l-7.223-39.582c-.397-1.734-.094-3.425.863-4.719.907-1.228 2.318-1.972 3.973-2.094L143.986.02c.403-.03.818-.022 1.231.024 2.97.327 5.835 2.573 6.966 5.462l17.326 39.138c10.786 1.929 21.638 5.308 32.275 10.047l23.073-26.333c1.107-1.432 2.969-2.149 5.067-1.917 1.358.15 2.711.69 3.915 1.563l31.851 22.99c3.125 2.267 4.427 6.124 3.032 8.973L254.96 93.081c8.09 8.762 15.144 18.338 20.978 28.48l40.123 2.36c3.668.373 6.784 2.796 7.797 6.033l10.893 35.015c.562 1.798.396 3.56-.467 4.963-.788 1.28-2.092 2.129-3.672 2.39l-36.519 7.847c.562 10.313-.355 20.345-2.728 29.842l33.54 29.878c2.943 2.453 3.927 6.351 2.265 9.047l-16.403 26.49c-1.097 1.759-3.13 2.655-5.436 2.401-1.16-.128-2.335-.55-3.4-1.222l-38.26-22.006c-7.187 5.935-15.402 10.651-24.443 14.034l7.244 39.583c.398 1.741.092 3.44-.87 4.741-.908 1.229-2.316 1.972-3.964 2.094l-34.142 2.449a7.55 7.55 0 0 1-.477.015zm-57.586-56.903c.139 0 .28.029.413.089 10.8 4.895 21.902 8.359 32.998 10.296a1 1 0 0 1 .743.581l17.56 39.686c.903 2.252 3.092 3.975 5.337 4.222.294.032.584.039.866.018l34.141-2.449c1.056-.078 1.945-.535 2.501-1.287.61-.825.794-1.944.519-3.15l-7.404-40.453c-.087-.48.184-.953.642-1.12 9.36-3.403 17.829-8.257 25.172-14.427a1 1 0 0 1 1.142-.101l38.898 22.374c.845.531 1.727.852 2.587.947 1.521.168 2.84-.381 3.519-1.469l16.4-26.486c1.124-1.822.303-4.669-1.869-6.48L289.58 211.1a1.001 1.001 0 0 1-.304-.995c2.5-9.731 3.431-20.05 2.769-30.671a1 1 0 0 1 .788-1.04l37.403-8.036c1.062-.177 1.855-.684 2.342-1.474.555-.903.648-2.081.261-3.319l-.001-.001-10.892-35.014c-.776-2.482-3.207-4.346-6.047-4.635l-40.62-2.388a.999.999 0 0 1-.81-.503c-5.914-10.365-13.118-20.14-21.413-29.052a.999.999 0 0 1-.191-1.065l14.034-33.763c.983-2.012-.075-4.855-2.383-6.53l-31.851-22.99c-.924-.671-1.947-1.083-2.96-1.195-1.392-.152-2.597.284-3.306 1.2l-23.598 26.935a.999.999 0 0 1-1.164.252c-10.873-4.908-21.975-8.372-32.999-10.296a.998.998 0 0 1-.742-.58L150.337 6.273c-.888-2.265-3.077-3.994-5.34-4.243a4.745 4.745 0 0 0-.866-.017l-34.117 2.472c-1.062.079-1.954.536-2.51 1.288-.605.818-.787 1.929-.513 3.129l7.382 40.451a.999.999 0 0 1-.642 1.119c-9.376 3.409-17.844 8.27-25.167 14.446-.322.271-.78.312-1.144.102L48.54 42.627c-.846-.523-1.733-.842-2.591-.936-1.548-.171-2.825.367-3.509 1.476L26.016 69.655c-1.132 1.814-.303 4.65 1.884 6.459l34.024 30.326a1 1 0 0 1 .303.997c-2.498 9.64-3.436 19.959-2.789 30.669a1 1 0 0 1-.788 1.038l-37.403 8.035c-1.045.169-1.827.666-2.314 1.448-.568.91-.669 2.101-.286 3.352l10.909 34.99c.777 2.483 3.199 4.346 6.027 4.634l40.624 2.409c.337.02.642.209.809.503 5.897 10.337 13.109 20.112 21.434 29.054a.999.999 0 0 1 .191 1.065l-14.036 33.742c-.975 2.015.083 4.86 2.383 6.529l31.833 23.009c.916.665 1.932 1.074 2.939 1.185 1.4.154 2.61-.288 3.325-1.211l23.597-26.936a.995.995 0 0 1 .751-.34zm46.385-18.537a87.11 87.11 0 0 1-9.534-.533c-46.385-5.114-88.947-46.31-94.875-91.833-2.852-21.9 3.09-41.623 16.731-55.535 13.963-14.24 34.227-20.696 57.061-18.179 46.385 5.114 88.946 46.311 94.875 91.834 2.852 21.899-3.09 41.622-16.731 55.535-11.987 12.223-28.616 18.711-47.527 18.711zM155.674 77.462c-18.375 0-34.505 6.279-46.107 18.112-13.202 13.465-18.947 32.599-16.176 53.877 5.817 44.664 47.587 85.084 93.111 90.104 22.214 2.449 41.89-3.799 55.414-17.592 13.203-13.465 18.947-32.599 16.176-53.876-5.817-44.664-47.586-85.085-93.111-90.104a84.71 84.71 0 0 0-9.307-.521z" fill="#111"/></svg></g><g transform="translate(126.0 1365.6) rotate(0.0 317.4 297.0) scale(1.1999001973370835 1.197718286174016)"><svg width="529.044" height="495.943" viewBox="0 0 529.044 495.943"><linearGradient id="c" gradientUnits="userSpaceOnUse" x1="-17.285" x2="379.595" y1="203.446" y2="431.201"><stop offset=".469" stop-color="#3658c1"/><stop offset="1" stop-color="#111"/></linearGradient><path d="M502.714 356.266 208.356 465.724c-21.884 8.137-47.969-2.035-58.142-22.682L13.441 165.458c-4.604-9.345-5.171-19.255-2.382-28.06l-8.367 26.413c-2.789 8.804-2.223 18.715 2.382 28.06l136.772 277.584c10.173 20.646 36.259 30.819 58.142 22.682l294.358-109.458c11.983-4.456 20.264-13.488 23.637-24.138l8.367-26.413c-3.373 10.65-11.654 19.682-23.637 24.138z" fill="url(#c)"/><path d="M184.214 495.939c-17.803 0-35.302-9.881-43.266-26.041L4.177 192.314c-4.538-9.211-5.404-19.44-2.438-28.804l8.367-26.414a1 1 0 0 1 1.906.604c-2.81 8.871-1.984 18.572 2.325 27.316l136.772 277.583c9.951 20.199 35.474 30.153 56.896 22.187l294.357-109.458c11.218-4.171 19.606-12.723 23.021-23.467l.012-.035a1 1 0 0 1 1.906.604l-8.367 26.413c-3.596 11.353-12.431 20.382-24.241 24.773L200.335 493.074c-5.227 1.943-10.69 2.864-16.123 2.864zM8.384 149.158l-4.738 14.956c-2.81 8.869-1.983 18.57 2.326 27.316l136.771 277.583c9.952 20.199 35.474 30.153 56.896 22.187l294.358-109.458c11.229-4.175 19.624-12.741 23.032-23.502l4.726-14.919c-4.544 6.174-10.985 11.016-18.694 13.883l-.349-.938.349.938-294.357 109.458c-22.354 8.311-48.995-2.084-59.389-23.177L12.543 165.901c-2.641-5.359-4.037-11.064-4.159-16.742z" fill="#111"/><path d="M329.049 3.809c21.894-8.141 47.975 2.021 58.148 22.668l136.772 277.584c10.173 20.646.638 44.065-21.256 52.206L208.355 465.725c-21.884 8.137-47.969-2.035-58.142-22.681L13.441 165.459c-10.173-20.646-.633-44.055 21.25-52.192z" fill="#fff"/><path d="M192.581 469.526c-17.804 0-35.303-9.882-43.266-26.041L12.543 165.901c-4.993-10.136-5.541-21.259-1.54-31.319 4.085-10.272 12.374-18.174 23.34-22.252L328.7 2.871l.349.938-.349-.938c22.359-8.313 49.003 2.076 59.395 23.164l136.771 277.583c4.995 10.139 5.542 21.264 1.541 31.328-4.086 10.274-12.377 18.179-23.346 22.258L208.704 466.662c-5.228 1.943-10.69 2.864-16.123 2.864zM344.867 1.997c-5.213 0-10.453.883-15.47 2.749L35.04 114.204c-10.429 3.878-18.306 11.377-22.179 21.116-3.789 9.528-3.265 20.075 1.477 29.697L151.11 442.6c9.951 20.198 35.474 30.153 56.896 22.187l294.357-109.458c10.432-3.879 18.311-11.38 22.184-21.122 3.791-9.531 3.267-20.081-1.477-29.704L386.3 26.919c-7.62-15.466-24.378-24.921-41.433-24.921z" fill="#111"/><path d="M500.882 312.654 364.109 35.071c-4.263-8.653-15.15-12.906-24.326-9.494L45.426 135.034c-9.176 3.412-13.159 13.194-8.895 21.847l136.772 277.584c4.263 8.653 15.155 12.893 24.331 9.481l294.358-109.458c9.176-3.412 13.153-13.181 8.89-21.834z" fill="#3658c1"/><path d="M191.036 446.117c-7.667 0-15.202-4.254-18.631-11.21L35.634 157.323c-2.167-4.398-2.405-9.223-.671-13.585 1.77-4.45 5.361-7.874 10.114-9.641L339.435 24.639c9.622-3.577 21.094.903 25.572 9.989l136.771 277.583c2.167 4.399 2.406 9.222.673 13.579-1.768 4.445-5.358 7.867-10.111 9.635L197.983 444.883a19.913 19.913 0 0 1-6.946 1.233zM346.404 25.4c-2.113 0-4.237.358-6.271 1.115L45.775 135.972c-4.216 1.567-7.395 4.588-8.952 8.505-1.523 3.83-1.308 8.079.606 11.963L174.2 434.023c4.034 8.187 14.387 12.221 23.085 8.986l294.357-109.458c4.216-1.567 7.395-4.586 8.95-8.498 1.521-3.826 1.305-8.072-.609-11.956L363.212 35.512c-3.092-6.275-9.891-10.113-16.809-10.113z" fill="#111"/><path d="m209.738 274.701-4.772-57.344a222.508 222.508 0 0 0-6.298-36.163c7.328 8.185 17.402 18.376 30.218 30.561l42.107 40.169-61.256 22.778M203.272 158.3l-25.749 9.575 14.556 196.177 25.385-9.44-5.578-58.981 75.543-28.091 46.498 43.765 27.246-10.131z" fill="#fff"/><path d="M192.079 365.051a.998.998 0 0 1-.997-.926l-14.556-196.178a1.001 1.001 0 0 1 .648-1.012l25.749-9.575c.348-.13.743-.054 1.02.196l157.9 142.875c.259.234.377.587.312.93a1.003 1.003 0 0 1-.634.749l-27.245 10.131a.997.997 0 0 1-1.034-.209l-46.047-43.341-74.242 27.608 5.506 58.217a1 1 0 0 1-.646 1.031l-25.385 9.44a1 1 0 0 1-.349.063zm-13.503-196.502 14.401 194.101 23.419-8.709-5.506-58.217a1 1 0 0 1 .646-1.031l75.543-28.092a1.002 1.002 0 0 1 1.034.209l46.047 43.341 25.12-9.341-156.229-141.362-24.476 9.101zm31.161 107.152a.998.998 0 0 1-.996-.917l-4.771-57.344a222.5 222.5 0 0 0-6.27-35.994 1 1 0 0 1 1.713-.919c7.288 8.141 17.437 18.404 30.162 30.503l42.108 40.17a1.002 1.002 0 0 1-.342 1.661l-61.256 22.778a1 1 0 0 1-.349.063zm-9.128-90.883a225.18 225.18 0 0 1 5.353 32.449l4.663 56.038 58.521-21.761-40.951-39.065c-11.271-10.716-20.53-20.001-27.586-27.66z" fill="#111"/><path d="m324.297 113.295-23.909 8.891 83.947 170.374 23.91-8.891z" fill="#fff"/><path d="M384.335 293.56a.998.998 0 0 1-.897-.558l-83.947-170.374a1 1 0 0 1 .549-1.38l23.909-8.891a1.001 1.001 0 0 1 1.246.496l83.947 170.374a1 1 0 0 1-.549 1.38l-23.909 8.891a1.01 1.01 0 0 1-.349.063zm-82.561-170.822 83.059 168.57 22.024-8.19-83.059-168.57z" fill="#111"/></svg></g></svg>